<svg width="641" height="83" viewBox="0 0 641 83" fill="none" xmlns="http://www.w3.org/2000/svg">
<g filter="url(#filter0_d_1212_2194)">
<path d="M4.25391 73H3.15391V74.1H4.25391V73ZM4.25391 2.00391V0.903906H3.15391V2.00391H4.25391ZM18.707 2.00391H19.807V0.903906H18.707V2.00391ZM18.707 60.9395H17.607V62.0395H18.707V60.9395ZM54.6445 60.9395H55.7445V59.8395H54.6445V60.9395ZM54.6445 73V74.1H55.7445V73H54.6445ZM5.35391 73V2.00391H3.15391V73H5.35391ZM4.25391 3.10391H18.707V0.903906H4.25391V3.10391ZM17.607 2.00391V60.9395H19.807V2.00391H17.607ZM18.707 62.0395H54.6445V59.8395H18.707V62.0395ZM53.5445 60.9395V73H55.7445V60.9395H53.5445ZM54.6445 71.9H4.25391V74.1H54.6445V71.9ZM64.9961 73H63.8961V74.1H64.9961V73ZM64.9961 1.41797V0.317969H63.8961V1.41797H64.9961ZM118.072 1.41797H119.172V0.317969H118.072V1.41797ZM118.072 13.5273V14.6273H119.172V13.5273H118.072ZM79.4492 13.5273V12.4273H78.3492V13.5273H79.4492ZM79.4492 29.3965H78.3492V30.4965H79.4492V29.3965ZM115.387 29.3965H116.487V28.2965H115.387V29.3965ZM115.387 41.457V42.557H116.487V41.457H115.387ZM79.4492 41.457V40.357H78.3492V41.457H79.4492ZM79.4492 60.9395H78.3492V62.0395H79.4492V60.9395ZM119.439 60.9395H120.539V59.8395H119.439V60.9395ZM119.439 73V74.1H120.539V73H119.439ZM66.0961 73V1.41797H63.8961V73H66.0961ZM64.9961 2.51797H118.072V0.317969H64.9961V2.51797ZM116.972 1.41797V13.5273H119.172V1.41797H116.972ZM118.072 12.4273H79.4492V14.6273H118.072V12.4273ZM78.3492 13.5273V29.3965H80.5492V13.5273H78.3492ZM79.4492 30.4965H115.387V28.2965H79.4492V30.4965ZM114.287 29.3965V41.457H116.487V29.3965H114.287ZM115.387 40.357H79.4492V42.557H115.387V40.357ZM78.3492 41.457V60.9395H80.5492V41.457H78.3492ZM79.4492 62.0395H119.439V59.8395H79.4492V62.0395ZM118.339 60.9395V73H120.539V60.9395H118.339ZM119.439 71.9H64.9961V74.1H119.439V71.9ZM196.246 73V74.1H197.871L197.267 72.5911L196.246 73ZM180.523 73L179.497 73.3947L179.768 74.1H180.523V73ZM174.273 56.7402L175.3 56.3456L175.029 55.6402H174.273V56.7402ZM145.66 56.7402V55.6402H144.889L144.626 56.3646L145.66 56.7402ZM139.752 73V74.1H140.523L140.786 73.3757L139.752 73ZM124.42 73L123.395 72.6008L122.811 74.1H124.42V73ZM152.301 1.41797V0.317969H151.549L151.276 1.01874L152.301 1.41797ZM167.584 1.41797L168.605 1.00908L168.328 0.317969H167.584V1.41797ZM169.635 44.6797V45.7797H171.217L170.666 44.2968L169.635 44.6797ZM159.771 18.1172L160.803 17.7343L159.761 14.9294L158.738 17.741L159.771 18.1172ZM150.104 44.6797L149.07 44.3035L148.533 45.7797H150.104V44.6797ZM196.246 71.9H180.523V74.1H196.246V71.9ZM181.55 72.6053L175.3 56.3456L173.247 57.1349L179.497 73.3947L181.55 72.6053ZM174.273 55.6402H145.66V57.8402H174.273V55.6402ZM144.626 56.3646L138.718 72.6243L140.786 73.3757L146.694 57.1159L144.626 56.3646ZM139.752 71.9H124.42V74.1H139.752V71.9ZM125.445 73.3992L153.326 1.8172L151.276 1.01874L123.395 72.6008L125.445 73.3992ZM152.301 2.51797H167.584V0.317969H152.301V2.51797ZM166.563 1.82686L195.225 73.4089L197.267 72.5911L168.605 1.00908L166.563 1.82686ZM170.666 44.2968L160.803 17.7343L158.74 18.5001L168.604 45.0626L170.666 44.2968ZM158.738 17.741L149.07 44.3035L151.137 45.0559L160.805 18.4934L158.738 17.741ZM150.104 45.7797H169.635V43.5797H150.104V45.7797ZM203.912 1.41797V0.317969H202.812V1.41797H203.912ZM243.951 2.78516L244.262 1.72998L244.259 1.72916L243.951 2.78516ZM254.742 9.37695L253.944 10.1339L254.742 9.37695ZM261.578 20.998L260.537 21.3525L260.538 21.3548L261.578 20.998ZM261.725 53.127L262.765 53.4845L262.765 53.4843L261.725 53.127ZM254.059 65.7734L253.292 64.9841L253.291 64.9855L254.059 65.7734ZM243.902 71.4863L244.234 72.5351L244.238 72.5338L243.902 71.4863ZM203.912 73H202.812V74.1H203.912V73ZM218.365 13.5273V12.4273H217.265V13.5273H218.365ZM218.365 60.9395H217.265V62.0395H218.365V60.9395ZM237.896 60.2559L237.63 59.1887L237.625 59.1899L237.896 60.2559ZM243.707 57.2773L242.973 56.458L242.965 56.4658L243.707 57.2773ZM247.516 50.3926L248.567 50.7146L248.568 50.7116L247.516 50.3926ZM247.516 24.5137L246.471 24.8581L247.516 24.5137ZM236.725 14.2109L236.482 15.284L236.491 15.2859L236.725 14.2109ZM203.912 2.51797H230.328V0.317969H203.912V2.51797ZM230.328 2.51797C236.252 2.51797 240.669 2.9737 243.643 3.84116L244.259 1.72916C240.983 0.773693 236.318 0.317969 230.328 0.317969V2.51797ZM243.64 3.84033C247.655 5.0229 251.083 7.11783 253.944 10.1339L255.54 8.61998C252.411 5.32097 248.646 3.02137 244.262 1.72998L243.64 3.84033ZM253.944 10.1339C256.818 13.1639 259.02 16.8956 260.537 21.3525L262.619 20.6436C261.012 15.9208 258.656 11.9051 255.54 8.61998L253.944 10.1339ZM260.538 21.3548C262.049 25.762 262.822 31.2643 262.822 37.8926H265.022C265.022 31.1094 264.233 25.3487 262.619 20.6413L260.538 21.3548ZM262.822 37.8926C262.822 43.6981 262.1 48.6494 260.684 52.7696L262.765 53.4843C264.279 49.0759 265.022 43.8709 265.022 37.8926H262.822ZM260.684 52.7694C258.94 57.8451 256.467 61.9027 253.292 64.9841L254.825 66.5628C258.291 63.1989 260.929 58.8254 262.765 53.4845L260.684 52.7694ZM253.291 64.9855C250.936 67.2797 247.713 69.1095 243.567 70.4388L244.238 72.5338C248.621 71.1288 252.168 69.15 254.826 66.5614L253.291 64.9855ZM243.571 70.4375C240.532 71.3987 236.394 71.9 231.109 71.9V74.1C236.502 74.1 240.892 73.5922 244.234 72.5351L243.571 70.4375ZM231.109 71.9H203.912V74.1H231.109V71.9ZM205.012 73V1.41797H202.812V73H205.012ZM217.265 13.5273V60.9395H219.465V13.5273H217.265ZM218.365 62.0395H229.156V59.8395H218.365V62.0395ZM229.156 62.0395C233.203 62.0395 236.234 61.814 238.168 61.3219L237.625 59.1899C235.978 59.6092 233.183 59.8395 229.156 59.8395V62.0395ZM238.163 61.323C240.655 60.7001 242.764 59.631 244.45 58.0889L242.965 56.4658C241.59 57.7231 239.826 58.6398 237.63 59.1887L238.163 61.323ZM244.441 58.0967C246.216 56.5062 247.564 53.9936 248.567 50.7146L246.464 50.0706C245.514 53.1718 244.323 55.249 242.973 56.458L244.441 58.0967ZM248.568 50.7116C249.59 47.3406 250.08 42.8398 250.08 37.2578H247.88C247.88 42.7435 247.395 46.9993 246.463 50.0736L248.568 50.7116ZM250.08 37.2578C250.08 31.6827 249.591 27.297 248.56 24.1693L246.471 24.8581C247.393 27.6548 247.88 31.7652 247.88 37.2578H250.08ZM248.56 24.1693C247.543 21.0825 246.093 18.5971 244.169 16.7804L242.659 18.3798C244.251 19.8834 245.535 22.0204 246.471 24.8581L248.56 24.1693ZM244.169 16.7804C242.246 14.9638 239.827 13.7581 236.958 13.1359L236.491 15.2859C239.026 15.8356 241.067 16.8761 242.659 18.3798L244.169 16.7804ZM236.967 13.138C234.811 12.6511 230.735 12.4273 224.859 12.4273V14.6273C230.768 14.6273 234.602 14.8594 236.482 15.2839L236.967 13.138ZM224.859 12.4273H218.365V14.6273H224.859V12.4273ZM276.227 73H275.127V74.1H276.227V73ZM276.227 1.41797V0.317969H275.127V1.41797H276.227ZM329.303 1.41797H330.403V0.317969H329.303V1.41797ZM329.303 13.5273V14.6273H330.403V13.5273H329.303ZM290.68 13.5273V12.4273H289.58V13.5273H290.68ZM290.68 29.3965H289.58V30.4965H290.68V29.3965ZM326.617 29.3965H327.717V28.2965H326.617V29.3965ZM326.617 41.457V42.557H327.717V41.457H326.617ZM290.68 41.457V40.357H289.58V41.457H290.68ZM290.68 60.9395H289.58V62.0395H290.68V60.9395ZM330.67 60.9395H331.77V59.8395H330.67V60.9395ZM330.67 73V74.1H331.77V73H330.67ZM277.327 73V1.41797H275.127V73H277.327ZM276.227 2.51797H329.303V0.317969H276.227V2.51797ZM328.203 1.41797V13.5273H330.403V1.41797H328.203ZM329.303 12.4273H290.68V14.6273H329.303V12.4273ZM289.58 13.5273V29.3965H291.78V13.5273H289.58ZM290.68 30.4965H326.617V28.2965H290.68V30.4965ZM325.517 29.3965V41.457H327.717V29.3965H325.517ZM326.617 40.357H290.68V42.557H326.617V40.357ZM289.58 41.457V60.9395H291.78V41.457H289.58ZM290.68 62.0395H330.67V59.8395H290.68V62.0395ZM329.57 60.9395V73H331.77V60.9395H329.57ZM330.67 71.9H276.227V74.1H330.67V71.9ZM342.975 73H341.875V74.1H342.975V73ZM342.975 1.41797V0.317969H341.875V1.41797H342.975ZM390.045 3.37109L389.657 4.40032L389.668 4.40458L390.045 3.37109ZM398.395 10.207L397.465 10.7958L398.395 10.207ZM396.783 34.8164L397.598 35.5552L397.602 35.5514L396.783 34.8164ZM382.623 41.4082L382.465 40.3196L379.349 40.7717L382.069 42.3584L382.623 41.4082ZM390.338 47.4141L389.531 48.1612L389.537 48.1676L390.338 47.4141ZM398.59 59.0352L397.655 59.6147L397.657 59.6187L398.59 59.0352ZM407.33 73V74.1H409.316L408.263 72.4164L407.33 73ZM390.045 73L389.131 73.6128L389.458 74.1H390.045V73ZM379.596 57.4238L378.68 58.034L378.682 58.0366L379.596 57.4238ZM371.979 46.9258L371.174 47.6764L371.183 47.6853L371.979 46.9258ZM367.633 43.9473L367.259 44.9817L367.268 44.9852L367.278 44.9886L367.633 43.9473ZM357.428 43.1172V42.0172H356.328V43.1172H357.428ZM357.428 73V74.1H358.528V73H357.428ZM357.428 31.6914H356.328V32.7914H357.428V31.6914ZM384.674 16.6035L383.835 17.3149L383.843 17.3247L383.852 17.3343L384.674 16.6035ZM379.254 13.7715L379.435 12.6865L379.42 12.684L379.405 12.6819L379.254 13.7715ZM357.428 13.5273V12.4273H356.328V13.5273H357.428ZM344.075 73V1.41797H341.875V73H344.075ZM342.975 2.51797H373.395V0.317969H342.975V2.51797ZM373.395 2.51797C381.023 2.51797 386.403 3.17265 389.657 4.40026L390.433 2.34193C386.785 0.965373 381.066 0.317969 373.395 0.317969V2.51797ZM389.668 4.40458C392.911 5.58659 395.505 7.70223 397.465 10.7958L399.324 9.61826C397.117 6.13631 394.145 3.69466 390.422 2.3376L389.668 4.40458ZM397.465 10.7958C399.427 13.8921 400.42 17.4441 400.42 21.4863H402.62C402.62 17.065 401.528 13.0974 399.324 9.61826L397.465 10.7958ZM400.42 21.4863C400.42 26.6258 398.916 30.7953 395.965 34.0814L397.602 35.5514C400.965 31.8062 402.62 27.0891 402.62 21.4863H400.42ZM395.968 34.0776C393.034 37.3141 388.583 39.432 382.465 40.3196L382.781 42.4968C389.228 41.5615 394.217 39.2849 397.598 35.5552L395.968 34.0776ZM382.069 42.3584C385.119 44.1379 387.6 46.0751 389.531 48.1612L391.145 46.667C389.039 44.391 386.377 42.3243 383.177 40.458L382.069 42.3584ZM389.537 48.1676C391.506 50.2626 394.209 54.0552 397.655 59.6147L399.525 58.4556C396.07 52.8823 393.271 48.9275 391.139 46.6605L389.537 48.1676ZM397.657 59.6187L406.398 73.5836L408.263 72.4164L399.522 58.4516L397.657 59.6187ZM407.33 71.9H390.045V74.1H407.33V71.9ZM390.958 72.3872L380.509 56.811L378.682 58.0366L389.131 73.6128L390.958 72.3872ZM380.511 56.8137C376.814 51.2679 374.221 47.6815 372.774 46.1663L371.183 47.6853C372.471 49.0346 374.956 52.447 378.68 58.034L380.511 56.8137ZM372.783 46.1752C371.321 44.6092 369.725 43.4976 367.987 42.906L367.278 44.9886C368.6 45.4386 369.902 46.3127 371.174 47.6763L372.783 46.1752ZM368.007 42.9129C366.288 42.2909 363.701 42.0172 360.357 42.0172V44.2172C363.655 44.2172 365.918 44.4968 367.259 44.9817L368.007 42.9129ZM360.357 42.0172H357.428V44.2172H360.357V42.0172ZM356.328 43.1172V73H358.528V43.1172H356.328ZM357.428 71.9H342.975V74.1H357.428V71.9ZM357.428 32.7914H368.121V30.5914H357.428V32.7914ZM368.121 32.7914C371.6 32.7914 374.443 32.718 376.643 32.5692C378.808 32.4227 380.451 32.1979 381.463 31.8541L380.756 29.7709C380.043 30.013 378.658 30.2277 376.494 30.3742C374.364 30.5183 371.576 30.5914 368.121 30.5914V32.7914ZM381.463 31.8541C383.402 31.1956 384.953 30.0447 386.071 28.4048L384.253 27.1655C383.418 28.3902 382.267 29.2575 380.756 29.7709L381.463 31.8541ZM386.071 28.4048C387.199 26.7503 387.727 24.7303 387.727 22.4141H385.527C385.527 24.3947 385.078 25.9554 384.253 27.1655L386.071 28.4048ZM387.727 22.4141C387.727 19.8002 387.016 17.5824 385.496 15.8727L383.852 17.3343C384.936 18.5544 385.527 20.2102 385.527 22.4141H387.727ZM385.513 15.8922C384.042 14.1567 381.979 13.1105 379.435 12.6865L379.073 14.8565C381.216 15.2137 382.767 16.0555 383.835 17.3149L385.513 15.8922ZM379.405 12.6819C378.139 12.506 374.527 12.4273 368.707 12.4273V14.6273C374.606 14.6273 378.025 14.7114 379.103 14.861L379.405 12.6819ZM368.707 12.4273H357.428V14.6273H368.707V12.4273ZM356.328 13.5273V31.6914H358.528V13.5273H356.328ZM411.529 49.709L411.423 48.6141L410.305 48.7228L410.437 49.8378L411.529 49.709ZM425.592 48.3418L426.675 48.1477L426.495 47.1488L425.485 47.247L425.592 48.3418ZM430.719 58.7422L430.001 59.5759L430.006 59.5803L430.719 58.7422ZM451.715 59.1328L452.419 59.9779L452.42 59.9769L451.715 59.1328ZM453.766 47.9023L452.911 48.5951L452.921 48.6078L452.932 48.6201L453.766 47.9023ZM448.59 44.7773L448.958 43.7408L448.95 43.7379L448.59 44.7773ZM437.018 41.6523L437.283 40.5848L437.282 40.5847L437.018 41.6523ZM420.709 34.5723L419.975 35.3914L419.975 35.3916L420.709 34.5723ZM417.193 9.96289L416.272 9.36142L416.271 9.36374L417.193 9.96289ZM426.129 2.6875L425.699 1.67513L425.696 1.67644L426.129 2.6875ZM460.504 6.10547L459.782 6.93515L459.785 6.93771L460.504 6.10547ZM467.682 21.877L467.73 22.9759L468.819 22.9281L468.781 21.8389L467.682 21.877ZM453.229 22.5117L452.144 22.6941L452.305 23.6533L453.277 23.6107L453.229 22.5117ZM449.225 14.6016L448.534 15.4578L448.542 15.4639L448.549 15.4698L449.225 14.6016ZM430.23 14.748L430.875 15.6393L430.877 15.6382L430.23 14.748ZM430.084 23.5371L429.376 24.379L429.377 24.3797L430.084 23.5371ZM458.941 33.498L458.423 34.4684L458.435 34.4743L458.941 33.498ZM466.852 40.7734L465.913 41.3467L465.92 41.3582L466.852 40.7734ZM466.314 63.6738L465.386 63.0833L466.314 63.6738ZM456.646 71.6816L457.067 72.698L457.074 72.6951L456.646 71.6816ZM420.221 68.0195L419.501 68.8512L419.504 68.8539L420.221 68.0195ZM411.636 50.8038L425.698 49.4366L425.485 47.247L411.423 48.6141L411.636 50.8038ZM424.509 48.5359C425.382 53.4038 427.172 57.1411 430.001 59.5759L431.436 57.9085C429.122 55.9162 427.494 52.7199 426.675 48.1477L424.509 48.5359ZM430.006 59.5803C432.861 62.0065 436.637 63.1625 441.217 63.1625V60.9625C437.007 60.9625 433.785 59.905 431.431 57.9041L430.006 59.5803ZM441.217 63.1625C446 63.1625 449.797 62.163 452.419 59.9779L451.011 58.2878C448.945 60.0089 445.744 60.9625 441.217 60.9625V63.1625ZM452.42 59.9769C454.998 57.8227 456.379 55.2201 456.379 52.1992H454.179C454.179 54.4517 453.184 56.4716 451.01 58.2887L452.42 59.9769ZM456.379 52.1992C456.379 50.2699 455.797 48.5755 454.599 47.1846L452.932 48.6201C453.753 49.5729 454.179 50.7432 454.179 52.1992H456.379ZM454.62 47.2096C453.456 45.7736 451.506 44.6459 448.958 43.7408L448.222 45.8139C450.622 46.6666 452.122 47.6222 452.911 48.5951L454.62 47.2096ZM448.95 43.7379C447.201 43.1326 443.292 42.079 437.283 40.5848L436.752 42.7198C442.787 44.2205 446.593 45.2502 448.23 45.8168L448.95 43.7379ZM437.282 40.5847C429.579 38.6749 424.361 36.3669 421.443 33.7529L419.975 35.3916C423.307 38.3766 428.962 40.7886 436.753 42.72L437.282 40.5847ZM421.443 33.7531C417.27 30.0131 415.217 25.5048 415.217 20.168H413.017C413.017 26.1592 415.359 31.2539 419.975 35.3914L421.443 33.7531ZM415.217 20.168C415.217 16.742 416.177 13.5474 418.116 10.562L416.271 9.36374C414.108 12.6935 413.017 16.3022 413.017 20.168H415.217ZM418.114 10.5644C420.067 7.57494 422.866 5.28269 426.562 3.69856L425.696 1.67644C421.645 3.41262 418.487 5.97063 416.272 9.36142L418.114 10.5644ZM426.559 3.69986C430.295 2.11192 434.845 1.29727 440.24 1.29727V-0.902734C434.633 -0.902734 429.775 -0.0572334 425.699 1.67514L426.559 3.69986ZM440.24 1.29727C449.087 1.29727 455.536 3.23952 459.782 6.93515L461.226 5.27579C456.422 1.09382 449.362 -0.902734 440.24 -0.902734V1.29727ZM459.785 6.93771C464.087 10.6565 466.364 15.6141 466.582 21.915L468.781 21.8389C468.544 14.9887 466.035 9.43201 461.223 5.27323L459.785 6.93771ZM467.633 20.778L453.18 21.4128L453.277 23.6107L467.73 22.9759L467.633 20.778ZM454.313 22.3293C453.669 18.4967 452.247 15.5588 449.9 13.7333L448.549 15.4698C450.304 16.8345 451.551 19.17 452.144 22.6941L454.313 22.3293ZM449.915 13.7453C447.617 11.8923 444.279 11.0602 440.094 11.0602V13.2602C444.046 13.2602 446.795 14.0557 448.534 15.4578L449.915 13.7453ZM440.094 11.0602C435.759 11.0602 432.214 11.9489 429.584 13.8579L430.877 15.6382C433 14.0967 436.03 13.2602 440.094 13.2602V11.0602ZM429.586 13.8568C427.776 15.1661 426.836 16.9757 426.836 19.1914H429.036C429.036 17.6962 429.625 16.5436 430.875 15.6393L429.586 13.8568ZM426.836 19.1914C426.836 21.2457 427.725 22.9905 429.376 24.379L430.792 22.6952C429.579 21.6749 429.036 20.5226 429.036 19.1914H426.836ZM429.377 24.3797C430.443 25.2747 432.158 26.1086 434.399 26.9157C436.666 27.7328 439.575 28.5576 443.112 29.3928L443.618 27.2517C440.124 26.4267 437.304 25.624 435.144 24.846C432.958 24.0581 431.548 23.3295 430.791 22.6945L429.377 24.3797ZM443.112 29.3928C450.118 31.047 455.199 32.7465 458.423 34.4684L459.46 32.5277C455.978 30.6689 450.675 28.9178 443.618 27.2517L443.112 29.3928ZM458.435 34.4743C461.652 36.1448 464.135 38.4346 465.913 41.3466L467.79 40.2002C465.792 36.9274 463.002 34.367 459.448 32.5218L458.435 34.4743ZM465.92 41.3582C467.706 44.2035 468.632 47.7806 468.632 52.1504H470.832C470.832 47.4707 469.838 43.4631 467.783 40.1887L465.92 41.3582ZM468.632 52.1504C468.632 56.0352 467.557 59.6726 465.386 63.0833L467.242 64.2644C469.629 60.5136 470.832 56.4687 470.832 52.1504H468.632ZM465.386 63.0833C463.236 66.4628 460.194 68.9912 456.219 70.6681L457.074 72.6951C461.432 70.8565 464.836 68.0463 467.242 64.2644L465.386 63.0833ZM456.226 70.6653C452.233 72.3187 447.194 73.1695 441.07 73.1695V75.3695C447.381 75.3695 452.727 74.4951 457.067 72.698L456.226 70.6653ZM441.07 73.1695C432.176 73.1695 425.519 71.1212 420.937 67.1851L419.504 68.8539C424.623 73.2512 431.866 75.3695 441.07 75.3695V73.1695ZM420.941 67.1879C416.347 63.2111 413.542 57.3883 412.622 49.5802L410.437 49.8378C411.404 58.0453 414.394 64.4295 419.501 68.8512L420.941 67.1879ZM481.939 73H480.839V74.1H481.939V73ZM481.939 1.41797V0.317969H480.839V1.41797H481.939ZM496.393 1.41797H497.493V0.317969H496.393V1.41797ZM496.393 29.5918H495.293V30.6918H496.393V29.5918ZM524.713 29.5918V30.6918H525.813V29.5918H524.713ZM524.713 1.41797V0.317969H523.613V1.41797H524.713ZM539.166 1.41797H540.266V0.317969H539.166V1.41797ZM539.166 73V74.1H540.266V73H539.166ZM524.713 73H523.613V74.1H524.713V73ZM524.713 41.7012H525.813V40.6012H524.713V41.7012ZM496.393 41.7012V40.6012H495.293V41.7012H496.393ZM496.393 73V74.1H497.493V73H496.393ZM483.039 73V1.41797H480.839V73H483.039ZM481.939 2.51797H496.393V0.317969H481.939V2.51797ZM495.293 1.41797V29.5918H497.493V1.41797H495.293ZM496.393 30.6918H524.713V28.4918H496.393V30.6918ZM525.813 29.5918V1.41797H523.613V29.5918H525.813ZM524.713 2.51797H539.166V0.317969H524.713V2.51797ZM538.066 1.41797V73H540.266V1.41797H538.066ZM539.166 71.9H524.713V74.1H539.166V71.9ZM525.813 73V41.7012H523.613V73H525.813ZM524.713 40.6012H496.393V42.8012H524.713V40.6012ZM495.293 41.7012V73H497.493V41.7012H495.293ZM496.393 71.9H481.939V74.1H496.393V71.9ZM553.717 73H552.617V74.1H553.717V73ZM553.717 1.41797V0.317969H552.617V1.41797H553.717ZM568.17 1.41797H569.27V0.317969H568.17V1.41797ZM568.17 73V74.1H569.27V73H568.17ZM554.817 73V1.41797H552.617V73H554.817ZM553.717 2.51797H568.17V0.317969H553.717V2.51797ZM567.07 1.41797V73H569.27V1.41797H567.07ZM568.17 71.9H553.717V74.1H568.17V71.9ZM581.988 73H580.888V74.1H581.988V73ZM581.988 1.41797V0.317969H580.888V1.41797H581.988ZM622.369 2.49219L622.084 3.55463L622.09 3.5563L622.369 2.49219ZM632.672 9.52344L631.799 10.1922L631.801 10.196L632.672 9.52344ZM628.326 41.6035L628.953 42.5075L628.955 42.5058L628.326 41.6035ZM620.855 44.9727L621.069 46.0517L621.079 46.0497L621.09 46.0474L620.855 44.9727ZM596.441 45.998V44.898H595.341V45.998H596.441ZM596.441 73V74.1H597.541V73H596.441ZM596.441 13.5273V12.4273H595.341V13.5273H596.441ZM596.441 33.8398H595.341V34.9398H596.441V33.8398ZM620.27 29.2012L619.366 28.5741L619.361 28.5804L619.357 28.5867L620.27 29.2012ZM613.824 14.0156L613.62 15.0966L613.629 15.0981L613.824 14.0156ZM583.088 73V1.41797H580.888V73H583.088ZM581.988 2.51797H605.182V0.317969H581.988V2.51797ZM605.182 2.51797C614.002 2.51797 619.58 2.88285 622.084 3.55461L622.654 1.42976C619.819 0.66923 613.939 0.317969 605.182 0.317969V2.51797ZM622.09 3.5563C625.937 4.56385 629.169 6.75796 631.799 10.1922L633.545 8.85466C630.641 5.06235 627.004 2.56897 622.648 1.42808L622.09 3.5563ZM631.801 10.196C634.385 13.539 635.722 17.9222 635.722 23.4395H637.922C637.922 17.5635 636.493 12.6694 633.542 8.85085L631.801 10.196ZM635.722 23.4395C635.722 27.7053 634.948 31.2108 633.459 34.0063L635.401 35.0405C637.102 31.8465 637.922 27.9627 637.922 23.4395H635.722ZM633.459 34.0063C631.935 36.8669 630.011 39.0874 627.697 40.7012L628.955 42.5058C631.589 40.6691 633.734 38.1695 635.401 35.0405L633.459 34.0063ZM627.699 40.6995C625.36 42.3218 623.001 43.3793 620.621 43.8979L621.09 46.0474C623.788 45.4593 626.41 44.2706 628.953 42.5075L627.699 40.6995ZM620.642 43.8936C617.298 44.5561 612.386 44.898 605.865 44.898V47.098C612.43 47.098 617.512 46.7564 621.069 46.0517L620.642 43.8936ZM605.865 44.898H596.441V47.098H605.865V44.898ZM595.341 45.998V73H597.541V45.998H595.341ZM596.441 71.9H581.988V74.1H596.441V71.9ZM595.341 13.5273V33.8398H597.541V13.5273H595.341ZM596.441 34.9398H604.352V32.7398H596.441V34.9398ZM604.352 34.9398C607.22 34.9398 609.635 34.8457 611.588 34.6538C613.523 34.4637 615.075 34.1714 616.177 33.7417L615.378 31.6919C614.56 32.0109 613.247 32.2801 611.373 32.4644C609.517 32.6468 607.179 32.7398 604.352 32.7398V34.9398ZM616.177 33.7417C618.29 32.9178 619.973 31.6101 621.182 29.8156L619.357 28.5867C618.417 29.9823 617.105 31.0184 615.378 31.6919L616.177 33.7417ZM621.173 29.8283C622.419 28.0324 623.03 25.9537 623.03 23.6348H620.83C620.83 25.5476 620.333 27.1798 619.366 28.5741L621.173 29.8283ZM623.03 23.6348C623.03 20.7993 622.189 18.3754 620.451 16.4519L618.819 17.927C620.14 19.3889 620.83 21.2619 620.83 23.6348H623.03ZM620.451 16.4519C618.75 14.5704 616.591 13.3975 614.02 12.9331L613.629 15.0981C615.744 15.4801 617.459 16.4231 618.819 17.927L620.451 16.4519ZM614.028 12.9347C612.185 12.587 608.615 12.4273 603.424 12.4273V14.6273C608.649 14.6273 612.013 14.7932 613.62 15.0966L614.028 12.9347ZM603.424 12.4273H596.441V14.6273H603.424V12.4273Z" fill="black"/>
</g>
<defs>
<filter id="filter0_d_1212_2194" x="0.253906" y="0.195312" width="640.566" height="82.0742" filterUnits="userSpaceOnUse" color-interpolation-filters="sRGB">
<feFlood flood-opacity="0" result="BackgroundImageFix"/>
<feColorMatrix in="SourceAlpha" type="matrix" values="0 0 0 0 0 0 0 0 0 0 0 0 0 0 0 0 0 0 127 0" result="hardAlpha"/>
<feOffset dy="4"/>
<feGaussianBlur stdDeviation="2"/>
<feComposite in2="hardAlpha" operator="out"/>
<feColorMatrix type="matrix" values="0 0 0 0 0 0 0 0 0 0 0 0 0 0 0 0 0 0 0.25 0"/>
<feBlend mode="normal" in2="BackgroundImageFix" result="effect1_dropShadow_1212_2194"/>
<feBlend mode="normal" in="SourceGraphic" in2="effect1_dropShadow_1212_2194" result="shape"/>
</filter>
</defs>
</svg>
