<svg viewBox="0 0 200 200" version="1.1" preserveAspectRatio="none" xmlns="http://www.w3.org/2000/svg">

      <text  dx="50%" dy="1rem">Deep</text>
      <text dx="50%" dy="2rem">Domain</text>
      <text dx="50%" dy="3rem">Expertise.</text>

</svg>

<svg width="149" height="154" viewBox="0 0 149 154" fill="none" xmlns="http://www.w3.org/2000/svg">
  <defs>
    <mask id="mask" x="0" y="0" width="100%" height="100%">
      <rect className={styles.alpha} x="0" y="0" width="100%" height="100%"></rect>
      <path d="M9.8608 93V84.2727H15.5369V85.598H11.4418V87.9673H15.2429V89.2926H11.4418V91.6747H15.571V93H9.8608ZM18.343 86.4545L19.6641 88.8707L21.0064 86.4545H22.6385L20.6655 89.7273L22.6726 93H21.049L19.6641 90.6435L18.2919 93H16.6555L18.6499 89.7273L16.7067 86.4545H18.343ZM23.8317 95.4545V86.4545H25.3487V87.5369H25.4382C25.5178 87.3778 25.63 87.2088 25.7749 87.0298C25.9197 86.848 26.1158 86.6932 26.3629 86.5653C26.6101 86.4347 26.9254 86.3693 27.3089 86.3693C27.8146 86.3693 28.2706 86.4986 28.6768 86.7571C29.0859 87.0128 29.4098 87.392 29.6484 87.8949C29.8899 88.3949 30.0107 89.0085 30.0107 89.7358C30.0107 90.4545 29.8928 91.0653 29.657 91.5682C29.4212 92.071 29.1001 92.4545 28.6939 92.7188C28.2876 92.983 27.8274 93.1151 27.3132 93.1151C26.9382 93.1151 26.6271 93.0526 26.38 92.9276C26.1328 92.8026 25.9339 92.652 25.7834 92.4759C25.6357 92.2969 25.5206 92.1278 25.4382 91.9688H25.3743V95.4545H23.8317ZM25.3445 89.7273C25.3445 90.1506 25.4041 90.5213 25.5234 90.8395C25.6456 91.1577 25.8203 91.4062 26.0476 91.5852C26.2777 91.7614 26.5561 91.8494 26.8828 91.8494C27.2237 91.8494 27.5092 91.7585 27.7393 91.5767C27.9695 91.392 28.1428 91.1406 28.2592 90.8224C28.3786 90.5014 28.4382 90.1364 28.4382 89.7273C28.4382 89.321 28.38 88.9602 28.2635 88.6449C28.147 88.3295 27.9737 88.0824 27.7436 87.9034C27.5135 87.7244 27.2266 87.6349 26.8828 87.6349C26.5533 87.6349 26.2734 87.7216 26.0433 87.8949C25.8132 88.0682 25.6385 88.3111 25.5192 88.6236C25.4027 88.9361 25.3445 89.304 25.3445 89.7273ZM34.2294 93.1278C33.5732 93.1278 33.0064 92.9915 32.5291 92.7188C32.0547 92.4432 31.6896 92.054 31.4339 91.5511C31.1783 91.0455 31.0504 90.4503 31.0504 89.7656C31.0504 89.0923 31.1783 88.5014 31.4339 87.9929C31.6925 87.4815 32.0533 87.0838 32.5163 86.7997C32.9794 86.5128 33.5234 86.3693 34.1484 86.3693C34.5518 86.3693 34.9325 86.4347 35.2905 86.5653C35.6513 86.6932 35.9695 86.892 36.245 87.1619C36.5234 87.4318 36.7422 87.7756 36.9013 88.1932C37.0604 88.608 37.1399 89.1023 37.1399 89.6761V90.1491H31.7749V89.1094H35.6612C35.6584 88.8139 35.5945 88.5511 35.4695 88.321C35.3445 88.0881 35.1697 87.9048 34.9453 87.7713C34.7237 87.6378 34.4652 87.571 34.1697 87.571C33.8544 87.571 33.5774 87.6477 33.3388 87.8011C33.1001 87.9517 32.9141 88.1506 32.7805 88.3977C32.6499 88.642 32.5831 88.9105 32.5803 89.2031V90.1108C32.5803 90.4915 32.6499 90.8182 32.7891 91.0909C32.9283 91.3608 33.1229 91.5682 33.3729 91.7131C33.6229 91.8551 33.9155 91.9261 34.2507 91.9261C34.4751 91.9261 34.6783 91.8949 34.8601 91.8324C35.0419 91.767 35.1996 91.6719 35.3331 91.5469C35.4666 91.4219 35.5675 91.267 35.6357 91.0824L37.076 91.2443C36.9851 91.625 36.8118 91.9574 36.5561 92.2415C36.3033 92.5227 35.9794 92.7415 35.5845 92.8977C35.1896 93.0511 34.7379 93.1278 34.2294 93.1278ZM38.445 93V86.4545H39.9407V87.5455H40.0089C40.1282 87.1676 40.3327 86.8764 40.6225 86.6719C40.9151 86.4645 41.2489 86.3608 41.6239 86.3608C41.7092 86.3608 41.8043 86.3651 41.9094 86.3736C42.0174 86.3793 42.1069 86.3892 42.1779 86.4034V87.8224C42.1126 87.7997 42.0089 87.7798 41.8668 87.7628C41.7276 87.7429 41.5927 87.733 41.462 87.733C41.1808 87.733 40.9279 87.794 40.7035 87.9162C40.4819 88.0355 40.3072 88.2017 40.1793 88.4148C40.0515 88.6278 39.9876 88.8736 39.9876 89.152V93H38.445ZM46.8228 86.4545V87.6477H43.06V86.4545H46.8228ZM43.989 84.8864H45.5316V91.0312C45.5316 91.2386 45.5629 91.3977 45.6254 91.5085C45.6907 91.6165 45.7759 91.6903 45.881 91.7301C45.9862 91.7699 46.1026 91.7898 46.2305 91.7898C46.3271 91.7898 46.4151 91.7827 46.4947 91.7685C46.5771 91.7543 46.6396 91.7415 46.6822 91.7301L46.9421 92.9361C46.8597 92.9645 46.7418 92.9957 46.5884 93.0298C46.4379 93.0639 46.2532 93.0838 46.0344 93.0895C45.6481 93.1009 45.3001 93.0426 44.9904 92.9148C44.6808 92.7841 44.435 92.5824 44.2532 92.3097C44.0742 92.0369 43.9862 91.696 43.989 91.2869V84.8864ZM48.1129 93V86.4545H49.6555V93H48.1129ZM48.8885 85.5256C48.6442 85.5256 48.4339 85.4446 48.2578 85.2827C48.0817 85.1179 47.9936 84.9205 47.9936 84.6903C47.9936 84.4574 48.0817 84.2599 48.2578 84.098C48.4339 83.9332 48.6442 83.8509 48.8885 83.8509C49.1357 83.8509 49.3459 83.9332 49.5192 84.098C49.6953 84.2599 49.7834 84.4574 49.7834 84.6903C49.7834 84.9205 49.6953 85.1179 49.5192 85.2827C49.3459 85.4446 49.1357 85.5256 48.8885 85.5256ZM56.4151 88.1847L55.0089 88.3381C54.9691 88.196 54.8995 88.0625 54.8001 87.9375C54.7035 87.8125 54.5728 87.7116 54.408 87.6349C54.2433 87.5582 54.0415 87.5199 53.8029 87.5199C53.4819 87.5199 53.212 87.5895 52.9933 87.7287C52.7773 87.8679 52.6708 88.0483 52.6737 88.2699C52.6708 88.4602 52.7404 88.6151 52.8825 88.7344C53.0273 88.8537 53.266 88.9517 53.5984 89.0284L54.7148 89.267C55.3342 89.4006 55.7944 89.6122 56.0955 89.902C56.3995 90.1918 56.5529 90.571 56.5558 91.0398C56.5529 91.4517 56.4322 91.8153 56.1935 92.1307C55.9577 92.4432 55.6296 92.6875 55.2092 92.8636C54.7887 93.0398 54.3058 93.1278 53.7603 93.1278C52.9592 93.1278 52.3143 92.9602 51.8256 92.625C51.337 92.2869 51.0458 91.8168 50.9521 91.2145L52.4563 91.0696C52.5245 91.3651 52.6694 91.5881 52.891 91.7386C53.1126 91.8892 53.4009 91.9645 53.756 91.9645C54.1225 91.9645 54.4165 91.8892 54.6381 91.7386C54.8626 91.5881 54.9748 91.402 54.9748 91.1804C54.9748 90.9929 54.9023 90.8381 54.7575 90.7159C54.6154 90.5937 54.3938 90.5 54.0927 90.4347L52.9762 90.2003C52.3484 90.0696 51.8839 89.8494 51.5827 89.5398C51.2816 89.2273 51.1325 88.8324 51.1353 88.3551C51.1325 87.9517 51.2418 87.6023 51.4634 87.3068C51.6879 87.0085 51.9989 86.7784 52.3967 86.6165C52.7972 86.4517 53.2589 86.3693 53.7816 86.3693C54.5487 86.3693 55.1523 86.5327 55.5927 86.8594C56.0359 87.1861 56.31 87.6278 56.4151 88.1847ZM60.7255 93.1278C60.0692 93.1278 59.5025 92.9915 59.0252 92.7188C58.5508 92.4432 58.1857 92.054 57.93 91.5511C57.6744 91.0455 57.5465 90.4503 57.5465 89.7656C57.5465 89.0923 57.6744 88.5014 57.93 87.9929C58.1886 87.4815 58.5494 87.0838 59.0124 86.7997C59.4755 86.5128 60.0195 86.3693 60.6445 86.3693C61.0479 86.3693 61.4286 86.4347 61.7866 86.5653C62.1474 86.6932 62.4656 86.892 62.7411 87.1619C63.0195 87.4318 63.2383 87.7756 63.3974 88.1932C63.5565 88.608 63.636 89.1023 63.636 89.6761V90.1491H58.271V89.1094H62.1573C62.1545 88.8139 62.0906 88.5511 61.9656 88.321C61.8406 88.0881 61.6658 87.9048 61.4414 87.7713C61.2198 87.6378 60.9613 87.571 60.6658 87.571C60.3505 87.571 60.0735 87.6477 59.8349 87.8011C59.5962 87.9517 59.4102 88.1506 59.2766 88.3977C59.146 88.642 59.0792 88.9105 59.0763 89.2031V90.1108C59.0763 90.4915 59.146 90.8182 59.2852 91.0909C59.4244 91.3608 59.619 91.5682 59.869 91.7131C60.119 91.8551 60.4116 91.9261 60.7468 91.9261C60.9712 91.9261 61.1744 91.8949 61.3562 91.8324C61.538 91.767 61.6957 91.6719 61.8292 91.5469C61.9627 91.4219 62.0636 91.267 62.1317 91.0824L63.5721 91.2443C63.4812 91.625 63.3079 91.9574 63.0522 92.2415C62.7994 92.5227 62.4755 92.7415 62.0806 92.8977C61.6857 93.0511 61.234 93.1278 60.7255 93.1278ZM65.8913 93.0938C65.6328 93.0938 65.4112 93.0028 65.2266 92.821C65.0419 92.6392 64.951 92.4176 64.9538 92.1562C64.951 91.9006 65.0419 91.6818 65.2266 91.5C65.4112 91.3182 65.6328 91.2273 65.8913 91.2273C66.1413 91.2273 66.3587 91.3182 66.5433 91.5C66.7308 91.6818 66.826 91.9006 66.8288 92.1562C66.826 92.3295 66.7805 92.4872 66.6925 92.6293C66.6072 92.7713 66.4936 92.8849 66.3516 92.9702C66.2124 93.0526 66.0589 93.0938 65.8913 93.0938Z" fill="black"/>
      <path d="M12.8182 78H9.8608V69.2727H12.8778C13.7443 69.2727 14.4886 69.4474 15.1108 69.7969C15.7358 70.1435 16.2159 70.642 16.5511 71.2926C16.8864 71.9432 17.054 72.7216 17.054 73.6278C17.054 74.5369 16.8849 75.3182 16.5469 75.9716C16.2116 76.625 15.7273 77.1264 15.0938 77.4759C14.4631 77.8253 13.7045 78 12.8182 78ZM11.4418 76.6321H12.7415C13.3494 76.6321 13.8565 76.5213 14.2628 76.2997C14.669 76.0753 14.9744 75.7415 15.179 75.2983C15.3835 74.8523 15.4858 74.2955 15.4858 73.6278C15.4858 72.9602 15.3835 72.4062 15.179 71.9659C14.9744 71.5227 14.6719 71.1918 14.2713 70.973C13.8736 70.7514 13.3793 70.6406 12.7884 70.6406H11.4418V76.6321ZM21.343 78.1278C20.7038 78.1278 20.1499 77.9872 19.6811 77.706C19.2124 77.4247 18.8487 77.0312 18.5902 76.5256C18.3345 76.0199 18.2067 75.429 18.2067 74.7528C18.2067 74.0767 18.3345 73.4844 18.5902 72.9759C18.8487 72.4673 19.2124 72.0724 19.6811 71.7912C20.1499 71.5099 20.7038 71.3693 21.343 71.3693C21.9822 71.3693 22.5362 71.5099 23.005 71.7912C23.4737 72.0724 23.8359 72.4673 24.0916 72.9759C24.3501 73.4844 24.4794 74.0767 24.4794 74.7528C24.4794 75.429 24.3501 76.0199 24.0916 76.5256C23.8359 77.0312 23.4737 77.4247 23.005 77.706C22.5362 77.9872 21.9822 78.1278 21.343 78.1278ZM21.3516 76.892C21.6982 76.892 21.9879 76.7969 22.2209 76.6065C22.4538 76.4134 22.6271 76.1548 22.7408 75.831C22.8572 75.5071 22.9155 75.1463 22.9155 74.7486C22.9155 74.348 22.8572 73.9858 22.7408 73.6619C22.6271 73.3352 22.4538 73.0753 22.2209 72.8821C21.9879 72.6889 21.6982 72.5923 21.3516 72.5923C20.9964 72.5923 20.701 72.6889 20.4652 72.8821C20.2322 73.0753 20.0575 73.3352 19.9411 73.6619C19.8274 73.9858 19.7706 74.348 19.7706 74.7486C19.7706 75.1463 19.8274 75.5071 19.9411 75.831C20.0575 76.1548 20.2322 76.4134 20.4652 76.6065C20.701 76.7969 20.9964 76.892 21.3516 76.892ZM25.7887 78V71.4545H27.2631V72.5668H27.3398C27.4762 72.1918 27.7021 71.8991 28.0174 71.6889C28.3327 71.4759 28.7092 71.3693 29.1467 71.3693C29.5898 71.3693 29.9634 71.4773 30.2674 71.6932C30.5742 71.9062 30.7901 72.1974 30.9151 72.5668H30.9833C31.1282 72.2031 31.3725 71.9134 31.7163 71.6974C32.0629 71.4787 32.4734 71.3693 32.9478 71.3693C33.5501 71.3693 34.0415 71.5597 34.4222 71.9403C34.8029 72.321 34.9933 72.8764 34.9933 73.6065V78H33.4464V73.8452C33.4464 73.4389 33.3384 73.142 33.1225 72.9545C32.9066 72.7642 32.6424 72.669 32.3299 72.669C31.9577 72.669 31.6665 72.7855 31.4563 73.0185C31.2489 73.2486 31.1452 73.5483 31.1452 73.9176V78H29.6325V73.7812C29.6325 73.4432 29.5302 73.1733 29.3256 72.9716C29.1239 72.7699 28.8597 72.669 28.533 72.669C28.3114 72.669 28.1097 72.7259 27.9279 72.8395C27.7461 72.9503 27.6012 73.108 27.4933 73.3125C27.3853 73.5142 27.3313 73.75 27.3313 74.0199V78H25.7887ZM38.4418 78.1321C38.027 78.1321 37.6534 78.0582 37.321 77.9105C36.9915 77.7599 36.7301 77.5384 36.5369 77.2457C36.3466 76.9531 36.2514 76.5923 36.2514 76.1634C36.2514 75.794 36.3196 75.4886 36.456 75.2472C36.5923 75.0057 36.7784 74.8125 37.0142 74.6676C37.25 74.5227 37.5156 74.4134 37.8111 74.3395C38.1094 74.2628 38.4176 74.2074 38.7358 74.1733C39.1193 74.1335 39.4304 74.098 39.669 74.0668C39.9077 74.0327 40.081 73.9815 40.1889 73.9134C40.2997 73.8423 40.3551 73.733 40.3551 73.5852V73.5597C40.3551 73.2386 40.2599 72.9901 40.0696 72.8139C39.8793 72.6378 39.6051 72.5497 39.2472 72.5497C38.8693 72.5497 38.5696 72.6321 38.348 72.7969C38.1293 72.9616 37.9815 73.1562 37.9048 73.3807L36.4645 73.1761C36.5781 72.7784 36.7656 72.446 37.027 72.179C37.2884 71.9091 37.608 71.7074 37.9858 71.5739C38.3636 71.4375 38.7813 71.3693 39.2386 71.3693C39.554 71.3693 39.8679 71.4062 40.1804 71.4801C40.4929 71.554 40.7784 71.6761 41.0369 71.8466C41.2955 72.0142 41.5028 72.2429 41.6591 72.5327C41.8182 72.8224 41.8977 73.1847 41.8977 73.6193V78H40.4148V77.1009H40.3636C40.2699 77.2827 40.1378 77.4531 39.9673 77.6122C39.7997 77.7685 39.5881 77.8949 39.3324 77.9915C39.0795 78.0852 38.7827 78.1321 38.4418 78.1321ZM38.8423 76.9986C39.152 76.9986 39.4205 76.9375 39.6477 76.8153C39.875 76.6903 40.0497 76.5256 40.1719 76.321C40.2969 76.1165 40.3594 75.8935 40.3594 75.652V74.8807C40.3111 74.9205 40.2287 74.9574 40.1122 74.9915C39.9986 75.0256 39.8707 75.0554 39.7287 75.081C39.5866 75.1065 39.446 75.1293 39.3068 75.1491C39.1676 75.169 39.0469 75.1861 38.9446 75.2003C38.7145 75.2315 38.5085 75.2827 38.3267 75.3537C38.1449 75.4247 38.0014 75.5241 37.8963 75.652C37.7912 75.777 37.7386 75.9389 37.7386 76.1378C37.7386 76.4219 37.8423 76.6364 38.0497 76.7812C38.2571 76.9261 38.5213 76.9986 38.8423 76.9986ZM43.4489 78V71.4545H44.9915V78H43.4489ZM44.2244 70.5256C43.9801 70.5256 43.7699 70.4446 43.5938 70.2827C43.4176 70.1179 43.3295 69.9205 43.3295 69.6903C43.3295 69.4574 43.4176 69.2599 43.5938 69.098C43.7699 68.9332 43.9801 68.8509 44.2244 68.8509C44.4716 68.8509 44.6818 68.9332 44.8551 69.098C45.0313 69.2599 45.1193 69.4574 45.1193 69.6903C45.1193 69.9205 45.0313 70.1179 44.8551 70.2827C44.6818 70.4446 44.4716 70.5256 44.2244 70.5256ZM48.1204 74.1648V78H46.5778V71.4545H48.0522V72.5668H48.1289C48.2795 72.2003 48.5195 71.9091 48.8491 71.6932C49.1815 71.4773 49.592 71.3693 50.0806 71.3693C50.5323 71.3693 50.9258 71.4659 51.261 71.6591C51.5991 71.8523 51.8604 72.1321 52.0451 72.4986C52.2326 72.8651 52.3249 73.3097 52.3221 73.8324V78H50.7795V74.071C50.7795 73.6335 50.6658 73.2912 50.4386 73.044C50.2141 72.7969 49.9031 72.6733 49.5053 72.6733C49.2354 72.6733 48.9954 72.733 48.7852 72.8523C48.5778 72.9687 48.4144 73.1378 48.2951 73.3594C48.1786 73.581 48.1204 73.8494 48.1204 74.1648Z" fill="black"/>
      <path d="M12.8182 63H9.8608V54.2727H12.8778C13.7443 54.2727 14.4886 54.4474 15.1108 54.7969C15.7358 55.1435 16.2159 55.642 16.5511 56.2926C16.8864 56.9432 17.054 57.7216 17.054 58.6278C17.054 59.5369 16.8849 60.3182 16.5469 60.9716C16.2116 61.625 15.7273 62.1264 15.0938 62.4759C14.4631 62.8253 13.7045 63 12.8182 63ZM11.4418 61.6321H12.7415C13.3494 61.6321 13.8565 61.5213 14.2628 61.2997C14.669 61.0753 14.9744 60.7415 15.179 60.2983C15.3835 59.8523 15.4858 59.2955 15.4858 58.6278C15.4858 57.9602 15.3835 57.4062 15.179 56.9659C14.9744 56.5227 14.6719 56.1918 14.2713 55.973C13.8736 55.7514 13.3793 55.6406 12.7884 55.6406H11.4418V61.6321ZM21.3857 63.1278C20.7294 63.1278 20.1626 62.9915 19.6854 62.7188C19.2109 62.4432 18.8459 62.054 18.5902 61.5511C18.3345 61.0455 18.2067 60.4503 18.2067 59.7656C18.2067 59.0923 18.3345 58.5014 18.5902 57.9929C18.8487 57.4815 19.2095 57.0838 19.6726 56.7997C20.1357 56.5128 20.6797 56.3693 21.3047 56.3693C21.7081 56.3693 22.0888 56.4347 22.4467 56.5653C22.8075 56.6932 23.1257 56.892 23.4013 57.1619C23.6797 57.4318 23.8984 57.7756 24.0575 58.1932C24.2166 58.608 24.2962 59.1023 24.2962 59.6761V60.1491H18.9311V59.1094H22.8175C22.8146 58.8139 22.7507 58.5511 22.6257 58.321C22.5007 58.0881 22.326 57.9048 22.1016 57.7713C21.88 57.6378 21.6214 57.571 21.326 57.571C21.0107 57.571 20.7337 57.6477 20.495 57.8011C20.2564 57.9517 20.0703 58.1506 19.9368 58.3977C19.8061 58.642 19.7393 58.9105 19.7365 59.2031V60.1108C19.7365 60.4915 19.8061 60.8182 19.9453 61.0909C20.0845 61.3608 20.2791 61.5682 20.5291 61.7131C20.7791 61.8551 21.0717 61.9261 21.407 61.9261C21.6314 61.9261 21.8345 61.8949 22.0163 61.8324C22.1982 61.767 22.3558 61.6719 22.4893 61.5469C22.6229 61.4219 22.7237 61.267 22.7919 61.0824L24.2322 61.2443C24.1413 61.625 23.968 61.9574 23.7124 62.2415C23.4595 62.5227 23.1357 62.7415 22.7408 62.8977C22.3459 63.0511 21.8942 63.1278 21.3857 63.1278ZM28.4989 63.1278C27.8427 63.1278 27.2759 62.9915 26.7987 62.7188C26.3242 62.4432 25.9592 62.054 25.7035 61.5511C25.4478 61.0455 25.32 60.4503 25.32 59.7656C25.32 59.0923 25.4478 58.5014 25.7035 57.9929C25.962 57.4815 26.3228 57.0838 26.7859 56.7997C27.2489 56.5128 27.793 56.3693 28.418 56.3693C28.8214 56.3693 29.2021 56.4347 29.56 56.5653C29.9208 56.6932 30.239 56.892 30.5146 57.1619C30.793 57.4318 31.0117 57.7756 31.1708 58.1932C31.3299 58.608 31.4094 59.1023 31.4094 59.6761V60.1491H26.0444V59.1094H29.9308C29.9279 58.8139 29.864 58.5511 29.739 58.321C29.614 58.0881 29.4393 57.9048 29.2148 57.7713C28.9933 57.6378 28.7347 57.571 28.4393 57.571C28.1239 57.571 27.8469 57.6477 27.6083 57.8011C27.3697 57.9517 27.1836 58.1506 27.0501 58.3977C26.9194 58.642 26.8526 58.9105 26.8498 59.2031V60.1108C26.8498 60.4915 26.9194 60.8182 27.0586 61.0909C27.1978 61.3608 27.3924 61.5682 27.6424 61.7131C27.8924 61.8551 28.185 61.9261 28.5202 61.9261C28.7447 61.9261 28.9478 61.8949 29.1296 61.8324C29.3114 61.767 29.4691 61.6719 29.6026 61.5469C29.7362 61.4219 29.837 61.267 29.9052 61.0824L31.3455 61.2443C31.2546 61.625 31.0813 61.9574 30.8256 62.2415C30.5728 62.5227 30.2489 62.7415 29.854 62.8977C29.4592 63.0511 29.0075 63.1278 28.4989 63.1278ZM32.7145 65.4545V56.4545H34.2315V57.5369H34.321C34.4006 57.3778 34.5128 57.2088 34.6577 57.0298C34.8026 56.848 34.9986 56.6932 35.2457 56.5653C35.4929 56.4347 35.8082 56.3693 36.1918 56.3693C36.6974 56.3693 37.1534 56.4986 37.5597 56.7571C37.9688 57.0128 38.2926 57.392 38.5312 57.8949C38.7727 58.3949 38.8935 59.0085 38.8935 59.7358C38.8935 60.4545 38.7756 61.0653 38.5398 61.5682C38.304 62.071 37.983 62.4545 37.5767 62.7188C37.1705 62.983 36.7102 63.1151 36.196 63.1151C35.821 63.1151 35.5099 63.0526 35.2628 62.9276C35.0156 62.8026 34.8168 62.652 34.6662 62.4759C34.5185 62.2969 34.4034 62.1278 34.321 61.9688H34.2571V65.4545H32.7145ZM34.2273 59.7273C34.2273 60.1506 34.2869 60.5213 34.4062 60.8395C34.5284 61.1577 34.7031 61.4062 34.9304 61.5852C35.1605 61.7614 35.4389 61.8494 35.7656 61.8494C36.1065 61.8494 36.392 61.7585 36.6222 61.5767C36.8523 61.392 37.0256 61.1406 37.142 60.8224C37.2614 60.5014 37.321 60.1364 37.321 59.7273C37.321 59.321 37.2628 58.9602 37.1463 58.6449C37.0298 58.3295 36.8565 58.0824 36.6264 57.9034C36.3963 57.7244 36.1094 57.6349 35.7656 57.6349C35.4361 57.6349 35.1562 57.7216 34.9261 57.8949C34.696 58.0682 34.5213 58.3111 34.402 58.6236C34.2855 58.9361 34.2273 59.304 34.2273 59.7273Z" fill="black"/>
    </mask>
  </defs>
  <rect className={styles.base} x="0" y="0" width="100%" height="100%"></rect>
</svg>


<svg width="57" height="59" viewBox="0 0 57 59" fill="none" xmlns="http://www.w3.org/2000/svg">

  <defs>
    <mask id="mask" x="0" y="0" width="100%" height="100%">
      <rect className={styles.alpha} x="0" y="0" width="100%" height="100%"></rect>
      <path d="M3.75 12H1.05682V3.27273H3.86932C4.71591 3.27273 5.44034 3.44744 6.04261 3.79688C6.64489 4.14347 7.10653 4.64205 7.42756 5.29261C7.74858 5.94034 7.90909 6.71591 7.90909 7.61932C7.90909 8.52841 7.74716 9.31108 7.4233 9.96733C7.09943 10.6207 6.62784 11.1236 6.00852 11.4759C5.3892 11.8253 4.63636 12 3.75 12ZM2.11364 11.0625H3.68182C4.40341 11.0625 5.00142 10.9233 5.47585 10.6449C5.95028 10.3665 6.30398 9.97017 6.53693 9.45597C6.76989 8.94176 6.88636 8.32955 6.88636 7.61932C6.88636 6.91477 6.77131 6.30824 6.54119 5.79972C6.31108 5.28835 5.96733 4.89631 5.50994 4.62358C5.05256 4.34801 4.48295 4.21023 3.80114 4.21023H2.11364V11.0625ZM12.2898 12.1364C11.6591 12.1364 11.1151 11.9972 10.6577 11.7188C10.2031 11.4375 9.85227 11.0455 9.60511 10.5426C9.3608 10.0369 9.23864 9.44886 9.23864 8.77841C9.23864 8.10795 9.3608 7.51705 9.60511 7.00568C9.85227 6.49148 10.196 6.09091 10.6364 5.80398C11.0795 5.5142 11.5966 5.36932 12.1875 5.36932C12.5284 5.36932 12.8651 5.42614 13.1974 5.53977C13.5298 5.65341 13.8324 5.83807 14.1051 6.09375C14.3778 6.34659 14.5952 6.68182 14.7571 7.09943C14.919 7.51705 15 8.03125 15 8.64205V9.06818H9.95455V8.19886H13.9773C13.9773 7.82955 13.9034 7.5 13.7557 7.21023C13.6108 6.92045 13.4034 6.69176 13.1335 6.52415C12.8665 6.35653 12.5511 6.27273 12.1875 6.27273C11.7869 6.27273 11.4403 6.37216 11.1477 6.57102C10.858 6.76705 10.6349 7.02273 10.4787 7.33807C10.3224 7.65341 10.2443 7.99148 10.2443 8.35227V8.93182C10.2443 9.42614 10.3295 9.84517 10.5 10.1889C10.6733 10.5298 10.9134 10.7898 11.2202 10.9688C11.527 11.1449 11.8835 11.233 12.2898 11.233C12.554 11.233 12.7926 11.196 13.0057 11.1222C13.2216 11.0455 13.4077 10.9318 13.5639 10.7812C13.7202 10.6278 13.8409 10.4375 13.9261 10.2102L14.8977 10.483C14.7955 10.8125 14.6236 11.1023 14.3821 11.3523C14.1406 11.5994 13.8423 11.7926 13.4872 11.9318C13.1321 12.0682 12.733 12.1364 12.2898 12.1364ZM19.2741 12.1364C18.6435 12.1364 18.0994 11.9972 17.642 11.7188C17.1875 11.4375 16.8366 11.0455 16.5895 10.5426C16.3452 10.0369 16.223 9.44886 16.223 8.77841C16.223 8.10795 16.3452 7.51705 16.5895 7.00568C16.8366 6.49148 17.1804 6.09091 17.6207 5.80398C18.0639 5.5142 18.581 5.36932 19.1719 5.36932C19.5128 5.36932 19.8494 5.42614 20.1818 5.53977C20.5142 5.65341 20.8168 5.83807 21.0895 6.09375C21.3622 6.34659 21.5795 6.68182 21.7415 7.09943C21.9034 7.51705 21.9844 8.03125 21.9844 8.64205V9.06818H16.9389V8.19886H20.9616C20.9616 7.82955 20.8878 7.5 20.7401 7.21023C20.5952 6.92045 20.3878 6.69176 20.1179 6.52415C19.8509 6.35653 19.5355 6.27273 19.1719 6.27273C18.7713 6.27273 18.4247 6.37216 18.1321 6.57102C17.8423 6.76705 17.6193 7.02273 17.4631 7.33807C17.3068 7.65341 17.2287 7.99148 17.2287 8.35227V8.93182C17.2287 9.42614 17.3139 9.84517 17.4844 10.1889C17.6577 10.5298 17.8977 10.7898 18.2045 10.9688C18.5114 11.1449 18.8679 11.233 19.2741 11.233C19.5384 11.233 19.777 11.196 19.9901 11.1222C20.206 11.0455 20.392 10.9318 20.5483 10.7812C20.7045 10.6278 20.8253 10.4375 20.9105 10.2102L21.8821 10.483C21.7798 10.8125 21.608 11.1023 21.3665 11.3523C21.125 11.5994 20.8267 11.7926 20.4716 11.9318C20.1165 12.0682 19.7173 12.1364 19.2741 12.1364ZM23.5142 14.4545V5.45455H24.4858V6.49432H24.6051C24.679 6.38068 24.7813 6.2358 24.9119 6.05966C25.0455 5.88068 25.2358 5.72159 25.483 5.58239C25.733 5.44034 26.071 5.36932 26.4972 5.36932C27.0483 5.36932 27.5341 5.5071 27.9545 5.78267C28.375 6.05824 28.7031 6.44886 28.9389 6.95455C29.1747 7.46023 29.2926 8.05682 29.2926 8.74432C29.2926 9.4375 29.1747 10.0384 28.9389 10.5469C28.7031 11.0526 28.3764 11.4446 27.9588 11.723C27.5412 11.9986 27.0597 12.1364 26.5142 12.1364C26.0938 12.1364 25.7571 12.0668 25.5043 11.9276C25.2514 11.7855 25.0568 11.625 24.9205 11.446C24.7841 11.2642 24.679 11.1136 24.6051 10.9943H24.5199V14.4545H23.5142ZM24.5028 8.72727C24.5028 9.22159 24.5753 9.65767 24.7202 10.0355C24.8651 10.4105 25.0767 10.7045 25.3551 10.9176C25.6335 11.1278 25.9744 11.233 26.3778 11.233C26.7983 11.233 27.1491 11.1222 27.4304 10.9006C27.7145 10.6761 27.9276 10.375 28.0696 9.99716C28.2145 9.61648 28.2869 9.19318 28.2869 8.72727C28.2869 8.26705 28.2159 7.85227 28.0739 7.48295C27.9347 7.1108 27.723 6.81676 27.4389 6.60085C27.1577 6.3821 26.804 6.27273 26.3778 6.27273C25.9688 6.27273 25.625 6.37642 25.3466 6.58381C25.0682 6.78835 24.858 7.07528 24.7159 7.4446C24.5739 7.81108 24.5028 8.23864 24.5028 8.72727Z" fill="black"/>
      <path d="M3.75 33H1.05682V24.2727H3.86932C4.71591 24.2727 5.44034 24.4474 6.04261 24.7969C6.64489 25.1435 7.10653 25.642 7.42756 26.2926C7.74858 26.9403 7.90909 27.7159 7.90909 28.6193C7.90909 29.5284 7.74716 30.3111 7.4233 30.9673C7.09943 31.6207 6.62784 32.1236 6.00852 32.4759C5.3892 32.8253 4.63636 33 3.75 33ZM2.11364 32.0625H3.68182C4.40341 32.0625 5.00142 31.9233 5.47585 31.6449C5.95028 31.3665 6.30398 30.9702 6.53693 30.456C6.76989 29.9418 6.88636 29.3295 6.88636 28.6193C6.88636 27.9148 6.77131 27.3082 6.54119 26.7997C6.31108 26.2884 5.96733 25.8963 5.50994 25.6236C5.05256 25.348 4.48295 25.2102 3.80114 25.2102H2.11364V32.0625ZM12.2045 33.1364C11.6136 33.1364 11.0952 32.9957 10.6491 32.7145C10.206 32.4332 9.85938 32.0398 9.60938 31.5341C9.36222 31.0284 9.23864 30.4375 9.23864 29.7614C9.23864 29.0795 9.36222 28.4844 9.60938 27.9759C9.85938 27.4673 10.206 27.0724 10.6491 26.7912C11.0952 26.5099 11.6136 26.3693 12.2045 26.3693C12.7955 26.3693 13.3125 26.5099 13.7557 26.7912C14.2017 27.0724 14.5483 27.4673 14.7955 27.9759C15.0455 28.4844 15.1705 29.0795 15.1705 29.7614C15.1705 30.4375 15.0455 31.0284 14.7955 31.5341C14.5483 32.0398 14.2017 32.4332 13.7557 32.7145C13.3125 32.9957 12.7955 33.1364 12.2045 33.1364ZM12.2045 32.233C12.6534 32.233 13.0227 32.1179 13.3125 31.8878C13.6023 31.6577 13.8168 31.3551 13.956 30.9801C14.0952 30.6051 14.1648 30.1989 14.1648 29.7614C14.1648 29.3239 14.0952 28.9162 13.956 28.5384C13.8168 28.1605 13.6023 27.8551 13.3125 27.6222C13.0227 27.3892 12.6534 27.2727 12.2045 27.2727C11.7557 27.2727 11.3864 27.3892 11.0966 27.6222C10.8068 27.8551 10.5923 28.1605 10.4531 28.5384C10.3139 28.9162 10.2443 29.3239 10.2443 29.7614C10.2443 30.1989 10.3139 30.6051 10.4531 30.9801C10.5923 31.3551 10.8068 31.6577 11.0966 31.8878C11.3864 32.1179 11.7557 32.233 12.2045 32.233ZM16.7056 33V26.4545H17.6772V27.4773H17.7624C17.8988 27.1278 18.119 26.8565 18.4229 26.6634C18.7269 26.4673 19.092 26.3693 19.5181 26.3693C19.9499 26.3693 20.3093 26.4673 20.5962 26.6634C20.886 26.8565 21.1119 27.1278 21.2738 27.4773H21.342C21.5096 27.1392 21.761 26.8707 22.0962 26.6719C22.4315 26.4702 22.8335 26.3693 23.3022 26.3693C23.8874 26.3693 24.3661 26.5526 24.7383 26.919C25.1104 27.2827 25.2965 27.8494 25.2965 28.6193V33H24.2908V28.6193C24.2908 28.1364 24.1587 27.7912 23.8945 27.5838C23.6303 27.3764 23.3192 27.2727 22.9613 27.2727C22.5011 27.2727 22.1445 27.4119 21.8917 27.6903C21.6388 27.9659 21.5124 28.3153 21.5124 28.7386V33H20.4897V28.517C20.4897 28.1449 20.369 27.8452 20.1275 27.6179C19.886 27.3878 19.5749 27.2727 19.1942 27.2727C18.9329 27.2727 18.6886 27.3423 18.4613 27.4815C18.2369 27.6207 18.055 27.8139 17.9158 28.0611C17.7795 28.3054 17.7113 28.5881 17.7113 28.9091V33H16.7056ZM29.0614 33.1534C28.6467 33.1534 28.2702 33.0753 27.9322 32.919C27.5941 32.7599 27.3256 32.5312 27.1268 32.233C26.9279 31.9318 26.8285 31.5682 26.8285 31.142C26.8285 30.767 26.9023 30.4631 27.0501 30.2301C27.1978 29.9943 27.3952 29.8097 27.6424 29.6761C27.8896 29.5426 28.1623 29.4432 28.4606 29.3778C28.7617 29.3097 29.0643 29.2557 29.3683 29.2159C29.766 29.1648 30.0884 29.1264 30.3356 29.1009C30.5856 29.0724 30.7674 29.0256 30.881 28.9602C30.9975 28.8949 31.0558 28.7812 31.0558 28.6193V28.5852C31.0558 28.1648 30.9407 27.8381 30.7106 27.6051C30.4833 27.3722 30.1381 27.2557 29.6751 27.2557C29.195 27.2557 28.8185 27.3608 28.5458 27.571C28.2731 27.7812 28.0813 28.0057 27.9705 28.2443L27.016 27.9034C27.1864 27.5057 27.4137 27.196 27.6978 26.9744C27.9847 26.75 28.2972 26.5937 28.6353 26.5057C28.9762 26.4148 29.3114 26.3693 29.641 26.3693C29.8512 26.3693 30.0927 26.3949 30.3654 26.446C30.641 26.4943 30.9066 26.5952 31.1623 26.7486C31.4208 26.902 31.6353 27.1335 31.8058 27.4432C31.9762 27.7528 32.0614 28.1676 32.0614 28.6875V33H31.0558V32.1136H31.0046C30.9364 32.2557 30.8228 32.4077 30.6637 32.5696C30.5046 32.7315 30.293 32.8693 30.0288 32.983C29.7646 33.0966 29.4421 33.1534 29.0614 33.1534ZM29.2148 32.25C29.6126 32.25 29.9478 32.1719 30.2205 32.0156C30.4961 31.8594 30.7035 31.6577 30.8427 31.4105C30.9847 31.1634 31.0558 30.9034 31.0558 30.6307V29.7102C31.0131 29.7614 30.9194 29.8082 30.7745 29.8509C30.6325 29.8906 30.4677 29.9261 30.2802 29.9574C30.0955 29.9858 29.9151 30.0114 29.739 30.0341C29.5657 30.054 29.4251 30.071 29.3171 30.0852C29.0558 30.1193 28.8114 30.1747 28.5842 30.2514C28.3597 30.3253 28.1779 30.4375 28.0387 30.5881C27.9023 30.7358 27.8342 30.9375 27.8342 31.1932C27.8342 31.5426 27.9634 31.8068 28.2219 31.9858C28.4833 32.1619 28.8143 32.25 29.2148 32.25ZM33.897 33V26.4545H34.9027V33H33.897ZM34.4084 25.3636C34.2124 25.3636 34.0433 25.2969 33.9013 25.1634C33.7621 25.0298 33.6925 24.8693 33.6925 24.6818C33.6925 24.4943 33.7621 24.3338 33.9013 24.2003C34.0433 24.0668 34.2124 24 34.4084 24C34.6044 24 34.772 24.0668 34.9112 24.2003C35.0533 24.3338 35.1243 24.4943 35.1243 24.6818C35.1243 24.8693 35.0533 25.0298 34.9112 25.1634C34.772 25.2969 34.6044 25.3636 34.4084 25.3636ZM37.7504 29.0625V33H36.7447V26.4545H37.7163V27.4773H37.8015C37.9549 27.1449 38.1879 26.8778 38.5004 26.6761C38.8129 26.4716 39.2163 26.3693 39.7106 26.3693C40.1538 26.3693 40.5415 26.4602 40.8739 26.642C41.2063 26.821 41.4648 27.0938 41.6495 27.4602C41.8342 27.8239 41.9265 28.2841 41.9265 28.8409V33H40.9208V28.9091C40.9208 28.3949 40.7873 27.9943 40.5202 27.7074C40.2532 27.4176 39.8867 27.2727 39.4208 27.2727C39.0998 27.2727 38.8129 27.3423 38.56 27.4815C38.31 27.6207 38.1126 27.8239 37.9677 28.0909C37.8228 28.358 37.7504 28.6818 37.7504 29.0625Z" fill="black"/>
      <path d="M1.05682 55V46.2727H6.32386V47.2102H2.11364V50.1591H6.05114V51.0966H2.11364V54.0625H6.39205V55H1.05682ZM8.84233 48.4545L10.4105 51.1307L11.9787 48.4545H13.1378L11.0241 51.7273L13.1378 55H11.9787L10.4105 52.4602L8.84233 55H7.68324L9.76278 51.7273L7.68324 48.4545H8.84233ZM14.5728 57.4545V48.4545H15.5444V49.4943H15.6637C15.7376 49.3807 15.8398 49.2358 15.9705 49.0597C16.104 48.8807 16.2944 48.7216 16.5415 48.5824C16.7915 48.4403 17.1296 48.3693 17.5558 48.3693C18.1069 48.3693 18.5927 48.5071 19.0131 48.7827C19.4336 49.0582 19.7617 49.4489 19.9975 49.9545C20.2333 50.4602 20.3512 51.0568 20.3512 51.7443C20.3512 52.4375 20.2333 53.0384 19.9975 53.5469C19.7617 54.0526 19.435 54.4446 19.0174 54.723C18.5998 54.9986 18.1183 55.1364 17.5728 55.1364C17.1523 55.1364 16.8157 55.0668 16.5629 54.9276C16.31 54.7855 16.1154 54.625 15.979 54.446C15.8427 54.2642 15.7376 54.1136 15.6637 53.9943H15.5785V57.4545H14.5728ZM15.5614 51.7273C15.5614 52.2216 15.6339 52.6577 15.7788 53.0355C15.9237 53.4105 16.1353 53.7045 16.4137 53.9176C16.6921 54.1278 17.033 54.233 17.4364 54.233C17.8569 54.233 18.2077 54.1222 18.489 53.9006C18.7731 53.6761 18.9862 53.375 19.1282 52.9972C19.2731 52.6165 19.3455 52.1932 19.3455 51.7273C19.3455 51.267 19.2745 50.8523 19.1325 50.483C18.9933 50.1108 18.7816 49.8168 18.4975 49.6009C18.2163 49.3821 17.8626 49.2727 17.4364 49.2727C17.0273 49.2727 16.6836 49.3764 16.4052 49.5838C16.1268 49.7884 15.9165 50.0753 15.7745 50.4446C15.6325 50.8111 15.5614 51.2386 15.5614 51.7273ZM24.6296 55.1364C23.9989 55.1364 23.4549 54.9972 22.9975 54.7188C22.543 54.4375 22.1921 54.0455 21.945 53.5426C21.7006 53.0369 21.5785 52.4489 21.5785 51.7784C21.5785 51.108 21.7006 50.517 21.945 50.0057C22.1921 49.4915 22.5359 49.0909 22.9762 48.804C23.4194 48.5142 23.9364 48.3693 24.5273 48.3693C24.8683 48.3693 25.2049 48.4261 25.5373 48.5398C25.8697 48.6534 26.1722 48.8381 26.445 49.0938C26.7177 49.3466 26.935 49.6818 27.0969 50.0994C27.2589 50.517 27.3398 51.0312 27.3398 51.642V52.0682H22.2944V51.1989H26.3171C26.3171 50.8295 26.2433 50.5 26.0955 50.2102C25.9506 49.9205 25.7433 49.6918 25.4734 49.5241C25.2063 49.3565 24.891 49.2727 24.5273 49.2727C24.1268 49.2727 23.7802 49.3722 23.4876 49.571C23.1978 49.767 22.9748 50.0227 22.8185 50.3381C22.6623 50.6534 22.5842 50.9915 22.5842 51.3523V51.9318C22.5842 52.4261 22.6694 52.8452 22.8398 53.1889C23.0131 53.5298 23.2532 53.7898 23.56 53.9688C23.8668 54.1449 24.2234 54.233 24.6296 54.233C24.8938 54.233 25.1325 54.196 25.3455 54.1222C25.5614 54.0455 25.7475 53.9318 25.9038 53.7812C26.06 53.6278 26.1808 53.4375 26.266 53.2102L27.2376 53.483C27.1353 53.8125 26.9634 54.1023 26.7219 54.3523C26.4805 54.5994 26.1822 54.7926 25.8271 54.9318C25.4719 55.0682 25.0728 55.1364 24.6296 55.1364ZM28.8697 55V48.4545H29.8413V49.4432H29.9094C30.0288 49.1193 30.2447 48.8565 30.5572 48.6548C30.8697 48.4531 31.2219 48.3523 31.614 48.3523C31.6879 48.3523 31.7802 48.3537 31.891 48.3565C32.0018 48.3594 32.0856 48.3636 32.1424 48.3693V49.392C32.1083 49.3835 32.0302 49.3707 31.908 49.3537C31.7887 49.3338 31.6623 49.3239 31.5288 49.3239C31.2106 49.3239 30.9265 49.3906 30.6765 49.5241C30.4293 49.6548 30.2333 49.8366 30.0884 50.0696C29.9464 50.2997 29.8754 50.5625 29.8754 50.858V55H28.8697ZM36.5913 48.4545V49.3068H33.1992V48.4545H36.5913ZM34.1879 46.8864H35.1935V53.125C35.1935 53.4091 35.2347 53.6222 35.3171 53.7642C35.4023 53.9034 35.5103 53.9972 35.641 54.0455C35.7745 54.0909 35.9151 54.1136 36.0629 54.1136C36.1737 54.1136 36.2646 54.108 36.3356 54.0966C36.4066 54.0824 36.4634 54.071 36.506 54.0625L36.7106 54.9659C36.6424 54.9915 36.5472 55.017 36.4251 55.0426C36.3029 55.071 36.1481 55.0852 35.9606 55.0852C35.6765 55.0852 35.3981 55.0241 35.1254 54.902C34.8555 54.7798 34.631 54.5938 34.4521 54.3438C34.2759 54.0938 34.1879 53.7784 34.1879 53.3977V46.8864ZM38.104 55V48.4545H39.1097V55H38.104ZM38.6154 47.3636C38.4194 47.3636 38.2504 47.2969 38.1083 47.1634C37.9691 47.0298 37.8995 46.8693 37.8995 46.6818C37.8995 46.4943 37.9691 46.3338 38.1083 46.2003C38.2504 46.0668 38.4194 46 38.6154 46C38.8114 46 38.979 46.0668 39.1183 46.2003C39.2603 46.3338 39.3313 46.4943 39.3313 46.6818C39.3313 46.8693 39.2603 47.0298 39.1183 47.1634C38.979 47.2969 38.8114 47.3636 38.6154 47.3636ZM45.5881 49.9205L44.6847 50.1761C44.6278 50.0256 44.544 49.8793 44.4332 49.7372C44.3253 49.5923 44.1776 49.473 43.9901 49.3793C43.8026 49.2855 43.5625 49.2386 43.2699 49.2386C42.8693 49.2386 42.5355 49.331 42.2685 49.5156C42.0043 49.6974 41.8722 49.929 41.8722 50.2102C41.8722 50.4602 41.9631 50.6577 42.1449 50.8026C42.3267 50.9474 42.6108 51.0682 42.9972 51.1648L43.9688 51.4034C44.554 51.5455 44.9901 51.7628 45.277 52.0554C45.5639 52.3452 45.7074 52.7187 45.7074 53.1761C45.7074 53.5511 45.5994 53.8864 45.3835 54.1818C45.1705 54.4773 44.8722 54.7102 44.4886 54.8807C44.1051 55.0511 43.6591 55.1364 43.1506 55.1364C42.483 55.1364 41.9304 54.9915 41.4929 54.7017C41.0554 54.4119 40.7784 53.9886 40.6619 53.4318L41.6165 53.1932C41.7074 53.5455 41.8793 53.8097 42.1321 53.9858C42.3878 54.1619 42.7216 54.25 43.1335 54.25C43.6023 54.25 43.9744 54.1506 44.25 53.9517C44.5284 53.75 44.6676 53.5085 44.6676 53.2273C44.6676 53 44.5881 52.8097 44.429 52.6562C44.2699 52.5 44.0256 52.3835 43.696 52.3068L42.6051 52.0511C42.0057 51.9091 41.5653 51.6889 41.2841 51.3906C41.0057 51.0895 40.8665 50.7131 40.8665 50.2614C40.8665 49.892 40.9702 49.5653 41.1776 49.2812C41.3878 48.9972 41.6733 48.7741 42.0341 48.6122C42.3977 48.4503 42.8097 48.3693 43.2699 48.3693C43.9176 48.3693 44.4261 48.5114 44.7955 48.7955C45.1676 49.0795 45.4318 49.4545 45.5881 49.9205ZM49.9656 55.1364C49.3349 55.1364 48.7908 54.9972 48.3335 54.7188C47.8789 54.4375 47.5281 54.0455 47.2809 53.5426C47.0366 53.0369 46.9144 52.4489 46.9144 51.7784C46.9144 51.108 47.0366 50.517 47.2809 50.0057C47.5281 49.4915 47.8718 49.0909 48.3121 48.804C48.7553 48.5142 49.2724 48.3693 49.8633 48.3693C50.2042 48.3693 50.5408 48.4261 50.8732 48.5398C51.2056 48.6534 51.5082 48.8381 51.7809 49.0938C52.0536 49.3466 52.271 49.6818 52.4329 50.0994C52.5948 50.517 52.6758 51.0312 52.6758 51.642V52.0682H47.6303V51.1989H51.6531C51.6531 50.8295 51.5792 50.5 51.4315 50.2102C51.2866 49.9205 51.0792 49.6918 50.8093 49.5241C50.5423 49.3565 50.2269 49.2727 49.8633 49.2727C49.4627 49.2727 49.1161 49.3722 48.8235 49.571C48.5337 49.767 48.3107 50.0227 48.1545 50.3381C47.9982 50.6534 47.9201 50.9915 47.9201 51.3523V51.9318C47.9201 52.4261 48.0053 52.8452 48.1758 53.1889C48.3491 53.5298 48.5891 53.7898 48.896 53.9688C49.2028 54.1449 49.5593 54.233 49.9656 54.233C50.2298 54.233 50.4684 54.196 50.6815 54.1222C50.8974 54.0455 51.0835 53.9318 51.2397 53.7812C51.396 53.6278 51.5167 53.4375 51.6019 53.2102L52.5735 53.483C52.4712 53.8125 52.2994 54.1023 52.0579 54.3523C51.8164 54.5994 51.5181 54.7926 51.163 54.9318C50.8079 55.0682 50.4087 55.1364 49.9656 55.1364ZM54.9386 55.0682C54.7283 55.0682 54.5479 54.9929 54.3974 54.8423C54.2468 54.6918 54.1715 54.5114 54.1715 54.3011C54.1715 54.0909 54.2468 53.9105 54.3974 53.7599C54.5479 53.6094 54.7283 53.5341 54.9386 53.5341C55.1488 53.5341 55.3292 53.6094 55.4798 53.7599C55.6303 53.9105 55.7056 54.0909 55.7056 54.3011C55.7056 54.4403 55.6701 54.5682 55.5991 54.6847C55.5309 54.8011 55.4386 54.8949 55.3221 54.9659C55.2085 55.0341 55.0806 55.0682 54.9386 55.0682Z" fill="black"/>
    </mask>
  </defs>
  <rect className={styles.base} x="0" y="0" width="100%" height="100%"></rect>

</svg>


<svg viewBox="0 0 200 200" version="1.1" preserveAspectRatio="none" xmlns="http://www.w3.org/2000/svg">
  <defs>
    <mask id="mask" x="0" y="0" width="100%" height="100%">
      <rect className={styles.alpha} x="0" y="0" width="100%" height="100%"></rect>
      <text className={styles.leadership_title} dx="50%" dy="1rem">Deep</text>
      <text className={styles.leadership_title} dx="50%" dy="2rem">Domain</text>
      <text className={styles.leadership_title} dx="50%" dy="3rem">Expertise.</text>
    </mask>
  </defs> 
  <rect className={styles.base} x="0" y="0" width="100%" height="100%"></rect>
</svg>