<svg id="Layer_2" xmlns="http://www.w3.org/2000/svg" viewBox="0 0 427.38 92.68">
  <defs>
    <style>.cls-1{fill:#00d7d2;}.cls-2{fill:#0a062b;}</style>
  </defs>
  <g id="Layer_2-2">
    <g>
      <path class="cls-1"
        d="M0,.66V92.16H91.5V.66H0ZM85,85.66H6.5V7.16H85V85.66Zm-45.98-10.7h10.73v-16.34h-6.5v9.84h-4.23c-5.18,0-9.4-4.22-9.4-9.4,0-1.79,.5-3.52,1.45-5.02,.81-1.28,1.93-2.36,3.24-3.12,1.42-.82,3.05-1.26,4.7-1.26h15.16c2.72,0,5.4-.7,7.77-2.02,2.28-1.28,4.24-3.13,5.65-5.34,1.63-2.55,2.48-5.5,2.48-8.54,0-8.77-7.13-15.9-15.9-15.9h-10.73v15.9h6.5v-9.4h4.23c5.18,0,9.4,4.22,9.4,9.4,0,1.8-.51,3.54-1.47,5.04-.84,1.31-1.99,2.4-3.35,3.16-1.39,.78-2.98,1.19-4.59,1.19h-15.16c-2.8,0-5.55,.74-7.96,2.13-2.21,1.28-4.11,3.1-5.48,5.26-1.61,2.54-2.46,5.48-2.46,8.5,0,8.77,7.13,15.9,15.9,15.9l.02,.02Z" />
      <path class="cls-2"
        d="M115.25,.7h14.15c9.69,0,15.93,7.81,15.93,18.51,0,5.88-1.98,11.06-5.78,14.25-2.69,2.23-6.19,3.5-10.75,3.5h-13.54V.7h0Zm13.03,29.92c6.9,0,9.59-4.21,9.59-11.41s-3.14-12.22-9.38-12.22h-5.88V30.63h5.67Z" />
      <path class="cls-2" d="M149.71,.7h6.9V6.89h-6.9V.7Zm0,10.25h6.9v26.02h-6.9V10.95Z" />
      <path class="cls-2"
        d="M160.9,37.73h6.85c.56,1.62,2.03,2.89,5.22,2.89,3.91,0,5.78-1.88,5.78-5.43v-2.84h-.15c-1.52,1.72-3.5,3.04-6.8,3.04-5.78,0-11.46-4.56-11.46-12.43s4.67-12.73,11.26-12.73c3.25,0,5.63,1.27,7.2,3.45h.1v-2.74h6.64v24.04c0,3.65-1.17,6.14-3.09,7.91-2.18,2.03-5.53,2.94-9.38,2.94-7.1,0-11.46-3.04-12.17-8.12v.02Zm18.21-14.91c0-3.8-2.03-7.05-6.19-7.05-3.5,0-5.83,2.74-5.83,7.1s2.33,7,5.88,7c4.36,0,6.14-3.2,6.14-7.05Z" />
      <path class="cls-2" d="M190.64,.7h6.9V6.89h-6.9V.7Zm0,10.25h6.9v26.02h-6.9V10.95Z" />
      <path class="cls-2"
        d="M200.54,10.95h3.6V2.83h6.75V10.95h4.46v4.56h-4.46v13.8c0,1.93,1.07,2.59,2.59,2.59,.86,0,2.03-.05,2.03-.05v5.07s-1.57,.1-4.31,.1c-3.35,0-7.05-1.32-7.05-6.24V15.51h-3.6v-4.56h0Z" />
      <path class="cls-2"
        d="M234.87,34.07h-.1c-1.32,1.98-3.2,3.5-7.66,3.5-5.33,0-9.08-2.79-9.08-7.96,0-5.73,4.67-7.56,10.45-8.37,4.31-.61,6.29-.96,6.29-2.94s-1.47-3.09-4.36-3.09c-3.25,0-4.82,1.17-5.02,3.65h-6.14c.2-4.56,3.6-8.57,11.21-8.57s10.96,3.5,10.96,9.59v13.24c0,1.98,.3,3.14,.91,3.6v.25h-6.64c-.41-.51-.66-1.72-.81-2.89h0Zm.05-6.3v-3.91c-1.22,.71-3.09,1.12-4.82,1.52-3.6,.81-5.38,1.62-5.38,4.06s1.62,3.3,4.06,3.3c3.96,0,6.14-2.43,6.14-4.97h0Z" />
      <path class="cls-2" d="M246.44,.7h6.9V36.96h-6.9V.7Z" />
      <path class="cls-2"
        d="M295.33,32.1h-.1c-2.49,4.16-5.88,5.63-10.19,5.63-5.48,0-9.74-1.98-12.73-5.27-2.99-3.35-4.72-8.01-4.72-13.49,0-6.04,2.13-11.31,5.93-14.81,2.94-2.69,6.8-4.16,11.67-4.16,9.13,0,14.35,5.02,15.52,12.12h-7.2c-.81-3.5-3.5-6.04-8.17-6.04-6.85,0-10.25,5.68-10.25,12.88s3.91,12.83,10.14,12.83c5.63,0,9.33-4.21,9.33-8.22v-.2h-8.72v-5.68h15.27v19.27h-5.53l-.25-4.87h0Z" />
      <path class="cls-2"
        d="M313.27,15.1h.15c1.57-2.94,3.35-4.46,6.39-4.46,.76,0,1.22,.05,1.62,.2v6.04h-.15c-4.51-.46-7.76,1.93-7.76,7.41v12.68h-6.9V10.95h6.64v4.16h0Z" />
      <path class="cls-2"
        d="M339.95,34.07h-.1c-1.32,1.98-3.2,3.5-7.66,3.5-5.33,0-9.08-2.79-9.08-7.96,0-5.73,4.67-7.56,10.45-8.37,4.31-.61,6.29-.96,6.29-2.94s-1.47-3.09-4.36-3.09c-3.25,0-4.82,1.17-5.02,3.65h-6.14c.2-4.56,3.6-8.57,11.21-8.57s10.96,3.5,10.96,9.59v13.24c0,1.98,.3,3.14,.91,3.6v.25h-6.64c-.41-.51-.66-1.72-.81-2.89h-.01Zm.05-6.3v-3.91c-1.22,.71-3.09,1.12-4.82,1.52-3.6,.81-5.38,1.62-5.38,4.06s1.62,3.3,4.06,3.3c3.96,0,6.14-2.43,6.14-4.97Z" />
      <path class="cls-2"
        d="M348.09,10.95h7l4.16,13.49c.76,2.49,1.17,4.16,1.17,4.16h.1s.35-1.67,1.12-4.16l4.26-13.49h6.9l-9.08,26.02h-6.59l-9.03-26.02h-.01Z" />
      <path class="cls-2" d="M375.47,.7h6.9V6.89h-6.9V.7Zm0,10.25h6.9v26.02h-6.9V10.95Z" />
      <path class="cls-2"
        d="M385.37,10.95h3.6V2.83h6.75V10.95h4.46v4.56h-4.46v13.8c0,1.93,1.07,2.59,2.59,2.59,.86,0,2.03-.05,2.03-.05v5.07s-1.57,.1-4.31,.1c-3.35,0-7.05-1.32-7.05-6.24V15.51h-3.6v-4.56h-.01Z" />
      <path class="cls-2"
        d="M405.09,40.06h2.43c2.74,0,3.85-1.42,3.85-3.55,0-1.42-.51-3.09-1.98-7.05l-7-18.51h7.25l3.85,11.72c.81,2.38,1.67,5.68,1.67,5.68h.1s.71-3.3,1.52-5.68l3.65-11.72h6.95l-9.08,26.68c-1.98,5.78-3.91,7.86-9.18,7.86h-4.06v-5.43h.03Z" />
      <g>
        <path class="cls-2" d="M115.66,55.68h3.4v36.29h-3.4V55.68Z" />
        <path class="cls-2"
          d="M125.15,65.73h3.15v4.01h.1c1.78-2.64,4.62-4.57,8.78-4.57,4.87,0,8.37,2.89,8.37,8.17v18.63h-3.15v-18.32c0-3.96-2.28-5.79-5.99-5.79-4.47,0-8.12,3.15-8.12,7.46v16.65h-3.15v-26.24Z" />
        <path class="cls-2"
          d="M153.02,68.32h-3.81v-2.59h3.81v-4.67c0-3.91,2.13-5.63,6.14-5.63,.36,0,1.57,.05,1.78,.05v2.69h-1.37c-2.64,0-3.45,1.01-3.45,2.99v4.57h4.87v2.59h-4.87v23.65h-3.1v-23.65Z" />
        <path class="cls-2"
          d="M165.35,65.73h3.15v4.87h.1c1.62-3.04,4.37-5.08,8.02-5.08,.41,0,.66,.05,.86,.1v3.1c-1.88-.3-3.96,.1-5.58,1.27-2.03,1.52-3.4,3.96-3.4,7.05v14.92h-3.15v-26.24Z" />
        <path class="cls-2"
          d="M178.9,85.27c0-6.24,4.87-7.51,10.81-8.22,5.18-.61,7.05-.91,7.05-3.55v-.51c0-3.55-2.23-5.28-6.29-5.28-4.67,0-7.1,1.93-7.36,5.84h-3.1c.35-5.08,3.7-8.37,10.45-8.37,5.74,0,9.29,2.39,9.29,8.12v14.26c0,1.57,.61,2.23,1.73,2.28,.36,0,.71-.1,1.17-.2h.15v2.28c-.46,.2-1.12,.41-2.13,.41-2.28,0-3.71-1.17-3.86-3.71v-.56h-.15c-1.47,2.08-4.16,4.52-9.19,4.52s-8.58-2.44-8.58-7.31Zm17.92-2.79v-4.72c-1.67,.91-4.26,1.37-6.8,1.73-4.42,.61-7.82,1.27-7.82,5.79,0,3.65,2.74,4.77,5.84,4.77,5.73,0,8.78-3.96,8.78-7.56Z" />
        <path class="cls-2"
          d="M215.24,55.68h14.26c3.96,0,6.6,1.12,8.53,3.15,1.62,1.73,2.54,4.01,2.54,7,0,6.7-3.91,10.35-11.52,10.35h-10.4v15.78h-3.4V55.68Zm13.55,17.61c5.89,0,8.32-2.79,8.32-7.36s-2.79-7.26-8.02-7.26h-10.45v14.62h10.15Z" />
        <path class="cls-2"
          d="M242.29,85.27c0-6.24,4.87-7.51,10.81-8.22,5.18-.61,7.05-.91,7.05-3.55v-.51c0-3.55-2.23-5.28-6.29-5.28-4.67,0-7.1,1.93-7.36,5.84h-3.1c.35-5.08,3.7-8.37,10.45-8.37,5.74,0,9.29,2.39,9.29,8.12v14.26c0,1.57,.61,2.23,1.73,2.28,.36,0,.71-.1,1.17-.2h.15v2.28c-.46,.2-1.12,.41-2.13,.41-2.28,0-3.71-1.17-3.86-3.71v-.56h-.15c-1.47,2.08-4.16,4.52-9.19,4.52s-8.58-2.44-8.58-7.31Zm17.92-2.79v-4.72c-1.67,.91-4.26,1.37-6.8,1.73-4.42,.61-7.82,1.27-7.82,5.79,0,3.65,2.74,4.77,5.84,4.77,5.73,0,8.78-3.96,8.78-7.56Z" />
        <path class="cls-2"
          d="M269.74,65.73h3.15v4.87h.1c1.62-3.04,4.37-5.08,8.02-5.08,.41,0,.66,.05,.86,.1v3.1c-1.88-.3-3.96,.1-5.58,1.27-2.03,1.52-3.4,3.96-3.4,7.05v14.92h-3.15v-26.24Z" />
        <path class="cls-2"
          d="M288.47,87.45v-19.13h-3.96v-2.59h3.96v-8.07h3.15v8.07h4.87v2.59h-4.87v18.63c0,1.88,.86,2.49,2.54,2.49,.71,0,1.62-.2,2.08-.41h.15v2.69c-.86,.3-1.78,.46-2.89,.46-2.99,0-5.02-1.37-5.02-4.72Z" />
        <path class="cls-2"
          d="M301.25,65.73h3.15v4.01h.1c1.78-2.64,4.62-4.57,8.78-4.57,4.87,0,8.37,2.89,8.37,8.17v18.63h-3.15v-18.32c0-3.96-2.28-5.79-5.99-5.79-4.47,0-8.12,3.15-8.12,7.46v16.65h-3.15v-26.24Z" />
        <path class="cls-2"
          d="M326.02,78.87c0-7.87,4.72-13.75,11.98-13.75,8.42,0,11.32,6.95,11.27,14.31h-20c.15,5.89,2.99,10.5,8.98,10.5,4.36,0,6.65-2.33,7.66-5.89h3.04c-1.12,5.18-4.82,8.58-10.71,8.58-7.87,0-12.23-5.89-12.23-13.75Zm19.95-1.93c-.15-5.18-2.59-9.24-7.97-9.24s-8.12,4.01-8.68,9.24h16.65Z" />
        <path class="cls-2"
          d="M353.83,65.73h3.15v4.87h.1c1.62-3.04,4.37-5.08,8.02-5.08,.41,0,.66,.05,.86,.1v3.1c-1.88-.3-3.96,.1-5.58,1.27-2.03,1.52-3.4,3.96-3.4,7.05v14.92h-3.15v-26.24Z" />
        <path class="cls-2"
          d="M368.19,83.8h3.2c.46,4.42,3.5,6.19,7.71,6.19s6.65-2.03,6.65-5.08-1.62-3.86-7-5.08c-5.33-1.22-9.59-2.49-9.59-7.56,0-4.36,3.76-7.11,9.13-7.11,6.24,0,9.14,3.15,9.74,7.76h-3.15c-.36-3.4-2.69-5.18-6.6-5.18s-5.99,1.93-5.99,4.36c0,2.99,2.49,3.71,7.51,4.87,5.28,1.12,9.08,2.44,9.08,7.87,0,4.67-3.76,7.82-9.85,7.82-7,0-10.56-3.81-10.86-8.88Z" />
      </g>
    </g>
  </g>
</svg>