<?xml version="1.0" encoding="UTF-8"?><svg id="Layer_2" xmlns="http://www.w3.org/2000/svg" viewBox="0 0 138.8 138.8"><defs><style>.cls-1{fill:#00d7d2;}.cls-2{fill:#fff;}</style></defs><g id="Layer_2-2"><g><rect class="cls-1" width="138.8" height="138.8"/><g id="Layer_1-2"><path class="cls-2" d="M9,9v120.8h120.8V9H9ZM121.18,121.18H17.62V17.62H121.27V121.18h-.09Zm-60.66-14.1h14.19v-21.58h-8.62v12.97h-5.57c-6.88,0-12.45-5.57-12.45-12.45,0-2.35,.7-4.61,1.91-6.61,1.04-1.65,2.52-3.13,4.26-4.09,1.91-1.04,4-1.65,6.18-1.65h20.02c3.57,0,7.14-.96,10.27-2.7,3.05-1.65,5.57-4.09,7.48-7.05,2.18-3.39,3.31-7.22,3.31-11.31,0-11.58-9.4-20.97-20.97-20.97h-14.19v20.97h8.62v-12.36h5.57c6.88,0,12.45,5.57,12.45,12.45,0,2.35-.7,4.7-1.91,6.7-1.13,1.74-2.61,3.22-4.44,4.18-1.83,1.04-3.92,1.57-6.09,1.57h-20.02c-3.66,0-7.31,.96-10.53,2.79-2.96,1.65-5.4,4.09-7.22,6.96-2.09,3.39-3.22,7.22-3.22,11.23,0,11.58,9.4,20.97,20.97,20.97h0Z"/></g></g></g></svg>