<svg width="78" height="78" viewBox="0 0 78 78" fill="none" xmlns="http://www.w3.org/2000/svg">
<path d="M67.1929 53.885H56.2443L56.2239 53.8658C47.2752 53.8658 40 47.0329 40 38.6283C40 35.7341 40.8673 32.9166 42.5101 30.4825C43.908 28.4125 45.8467 26.6683 48.1017 25.4416C50.5608 24.1096 53.3669 24 56.2239 24L60 24.0004V29.5004H56.2341C54.5505 29.5004 52.8873 30.0608 51.4384 30.8466C50.1017 31.575 48.9589 32.61 48.1324 33.8366C47.163 35.2741 46.6528 36.9321 46.6528 38.6475C46.6528 43.6116 50.9588 47.6558 56.2443 47.6558H60.5605V38.2258H67.1929V53.885Z" stroke="black" stroke-linecap="round"/>
<path d="M28.8769 52.5392C26.4586 53.8042 19.4078 54.0996 16.6324 54.0996H13.5V51.3496V48.5996H16.6324C18.2752 48.5996 24.2036 47.8433 25.6219 47.0958C27.0096 46.3675 28.183 45.3229 29.0401 44.0675C30.0197 42.63 30.5401 40.9625 30.5401 39.2375C30.5401 34.2733 26.2341 30.2292 20.9486 30.2292H16.6324V39.2375H10V24H20.9486C29.8972 24 37.1725 30.8329 37.1725 39.2375C37.1725 42.1508 36.3051 44.9779 34.6419 47.4217C33.2032 49.5396 31.2033 51.3125 28.8769 52.5392Z" stroke="black" stroke-linecap="round"/>
<rect x="0.5" y="0.5" width="77" height="77" stroke="black"/>
</svg>
