<svg width="78" height="78" viewBox="0 0 78 78" fill="none" xmlns="http://www.w3.org/2000/svg">
<path d="M39.1929 65.4846H28.2443L28.2239 65.4654C19.2752 65.4654 12 58.6325 12 50.2279C12 47.3337 12.8673 44.5162 14.5101 42.0821C15.908 40.0121 17.8467 38.2679 20.1017 37.0412C22.5608 35.7092 25.3669 35.5996 28.2239 35.5996L32 35.6V41.1H28.2341C26.5505 41.1 24.8873 41.6604 23.4384 42.4462C22.1017 43.1746 20.9589 44.2096 20.1324 45.4362C19.163 46.8737 18.6528 48.5317 18.6528 50.2471C18.6528 55.2112 22.9588 59.2554 28.2443 59.2554H32.5605V49.8254H39.1929V65.4846Z" stroke="black" stroke-linecap="round"/>
<path d="M57.8769 39.5392C55.4586 40.8042 48.4078 41.0996 45.6324 41.0996H42.5V38.3496V35.5996H45.6324C47.2752 35.5996 53.2036 34.8433 54.6219 34.0958C56.0096 33.3675 57.183 32.3229 58.0401 31.0675C59.0197 29.63 59.5401 27.9625 59.5401 26.2375C59.5401 21.2733 55.2341 17.2292 49.9486 17.2292H45.6324V26.2375H39V11H49.9486C58.8972 11 66.1725 17.8329 66.1725 26.2375C66.1725 29.1508 65.3051 31.9779 63.6419 34.4217C62.2032 36.5396 60.2033 38.3125 57.8769 39.5392Z" stroke="black" stroke-linecap="round"/>
<rect x="0.5" y="0.5" width="77" height="77" stroke="black"/>
</svg>
