<svg width="78" height="78" viewBox="0 0 78 78" fill="none" xmlns="http://www.w3.org/2000/svg">
<path d="M35 41.1H31.2341C29.5505 41.1 27.8873 41.6604 26.4384 42.4462C25.1017 43.1746 23.9589 44.2096 23.1324 45.4362C22.163 46.8737 21.6528 48.5317 21.6528 50.2471C21.6528 55.2112 25.9588 59.2554 31.2443 59.2554H35.5605V49.8254H42.1929V65.4846H31.2443L31.2239 65.4654C22.2752 65.4654 15 58.6325 15 50.2279C15 47.3337 15.8673 44.5162 17.5101 42.0821C18.908 40.0121 20.8467 38.2679 23.1017 37.0412C25.5608 35.7092 28.3669 35.5996 31.2239 35.5996L35 35.6" stroke="black" stroke-linecap="round"/>
<path d="M35.5 35.5996H38.6324C40.2752 35.5996 46.2036 34.8433 47.6219 34.0958C49.0096 33.3675 50.183 32.3229 51.0401 31.0675C52.0197 29.63 52.5401 27.9625 52.5401 26.2375C52.5401 21.2733 48.2341 17.2292 42.9486 17.2292H38.6324V26.2375H32V11H42.9486C51.8972 11 59.1725 17.8329 59.1725 26.2375C59.1725 29.1508 58.3051 31.9779 56.6419 34.4217C55.2032 36.5396 53.2033 38.3125 50.8769 39.5392C48.4586 40.8042 41.4078 41.0996 38.6324 41.0996H35.5" stroke="black" stroke-linecap="round"/>
<rect x="0.5" y="0.5" width="77" height="77" stroke="black"/>
</svg>
