<svg width="78" height="78" viewBox="0 0 78 78" fill="none" xmlns="http://www.w3.org/2000/svg">
<path d="M44.1929 65.4846H33.2443L33.2239 65.4654C24.2752 65.4654 17 58.6325 17 50.2279C17 47.3337 17.8673 44.5162 19.5101 42.0821C20.908 40.0121 22.8467 38.2679 25.1017 37.0412C27.5608 35.7092 30.3669 35.5996 33.2239 35.5996H37.5H40.6324C42.2752 35.5996 48.2036 34.8433 49.6219 34.0958C51.0096 33.3675 52.183 32.3229 53.0401 31.0675C54.0197 29.63 54.5401 27.9625 54.5401 26.2375C54.5401 21.2733 50.2341 17.2292 44.9486 17.2292H40.6324V26.2375H34V11H44.9486C53.8972 11 61.1725 17.8329 61.1725 26.2375C61.1725 29.1508 60.3051 31.9779 58.6419 34.4217C57.2032 36.5396 55.2033 38.3125 52.8769 39.5392C50.4586 40.8042 43.4078 41.0996 40.6324 41.0996H37.5L33.2341 41.1C31.5505 41.1 29.8873 41.6604 28.4384 42.4462C27.1017 43.1746 25.9589 44.2096 25.1324 45.4362C24.163 46.8737 23.6528 48.5317 23.6528 50.2471C23.6528 55.2113 27.9588 59.2554 33.2443 59.2554H37.5605V49.8254H44.1929V65.4846Z" fill="black"/>
<rect x="0.5" y="0.5" width="77" height="77" stroke="black"/>
</svg>
